<?xml version="1.0" encoding="utf-8" ?>
<svg xmlns="http://www.w3.org/2000/svg" xmlns:xlink="http://www.w3.org/1999/xlink" width="1024" height="1024">
	<path fill="#040403" d="M308.91 199.263C321.417 199.725 333.85 198.768 346.317 199.116C352.533 199.289 357.359 201.161 361.577 205.826C374.072 219.643 376.295 246.056 376.253 263.899C376.23 273.4 375.332 282.766 375.635 292.327C375.924 301.417 378.368 310.866 377.81 319.812C382.833 308.646 385.66 296.851 389.258 285.192C393.94 270.016 398.901 254.907 403.301 239.645C405.171 233.159 406.174 226.324 408.44 219.965C409.328 217.474 410.49 215 412.315 213.051C415.332 209.828 418.703 209.445 422.882 209.366C427.367 209.28 431.91 210.126 436.345 210.733C448.467 212.393 460.06 214.889 472.052 217.23C477.038 218.204 482.184 218.566 487.045 220.093C488.625 220.589 489.905 221.325 491.153 222.413C498.199 228.555 499.33 238.585 505.892 244.87C506.189 244.029 506.153 244.39 506.105 243.499C505.739 236.7 506.903 230.466 508.568 223.893C517.446 221.605 526.917 220.885 536.05 220.271C559.461 218.699 583.069 219.089 606.525 218.268L673.054 215.764C677.386 215.639 681.705 215.062 686.036 215.021C687.543 215.006 688.927 215.071 690.31 215.737C690.52 215.838 690.722 215.954 690.93 216.06C698.022 219.674 703.008 226.028 706.974 232.761C715.485 233.477 748.46 235.788 754.661 238.811C765.81 244.247 768.825 255.792 772.599 266.534C772.108 259.983 771.431 253.575 773.979 247.308C775.303 244.052 777.44 241.296 780.771 239.958C789.276 236.541 802.801 239.239 811.957 239.465C822.612 239.728 840.396 237.653 849.835 242.278C854.323 244.478 857.954 252.337 859.401 256.895C862.536 266.77 862.834 277.559 862.876 287.859C862.93 301.098 861.615 314.302 860.515 327.48Q858.412 351.164 857.538 374.926C857.187 387.266 857.7 399.563 857.486 411.888C857.321 421.323 856.379 430.663 856.401 440.128C856.439 455.944 857.443 472.021 856.128 487.808C855.736 492.506 854.444 496.701 852.25 500.876C855.16 503.787 857.205 506.555 858.993 510.245C860.063 505.853 861.005 499.416 863.971 495.88C866.192 493.231 870.836 493.096 874.063 492.817C887.104 491.692 900.463 492.547 913.53 492.869C920.581 493.043 929.213 492.319 935.988 494.162C938.245 494.775 940.53 496.304 942.259 497.844C948.38 503.296 953.149 515.155 953.283 523.256C953.442 532.785 951.793 542.991 950.866 552.504C948.273 579.128 944.49 605.614 941.943 632.259Q938.227 670.429 934.978 708.64C934.043 720.364 934.003 737.466 931.847 748.528C930.665 754.59 927.154 760.657 922.822 765.043C919.528 768.379 916.209 769.627 911.54 769.548C900.172 769.355 888.212 765.607 876.995 763.727C869.858 762.531 862.351 762.515 855.355 760.626C852.834 759.945 850.173 758.816 848.368 756.861C844.807 753.004 838.137 742.817 837.003 737.827C836.568 735.91 836.755 733.79 836.835 731.837C826.084 743.716 818.684 750.846 803.694 757.111C799.184 758.996 795.009 760.697 790.102 761.23C789.685 766.61 790.525 784.558 789.415 787.693C788.897 789.155 787.344 790.916 785.86 791.434C785.07 791.709 784.795 791.379 784.085 791.068C780.26 786.237 781.086 775.254 781.427 769.415C777.553 768.917 773.709 768.272 769.858 767.622C768.513 779.411 770.012 792.014 770.487 803.848C770.703 809.219 770.403 814.639 770.252 820.01C770.144 823.829 770.502 828.149 769.494 831.838C769.047 833.477 768.148 834.821 766.623 835.636C763.986 837.046 760.252 836.493 757.519 835.708C753.585 834.579 751.901 833.043 749.98 829.492Q749.75 806.873 748.738 784.276C748.493 777.645 747.88 770.985 748.022 764.35C730.101 760.595 709.82 752.786 695.127 741.645C694.274 745.573 693.543 749.568 691.499 753.087C687.513 759.948 667.411 778.02 660.678 783.309C654.422 788.55 649.6 791.25 641.269 790.917C631.998 785.789 617.949 765.893 613.235 756.383C607.678 758.179 602.119 760.376 596.426 761.684C584.189 764.495 568.129 764.186 556.025 760.784C539.708 756.198 532.738 751.165 519.88 741.17C506.25 730.574 501.342 727.139 492.626 711.575C492.918 718.149 493.263 732.861 491.681 738.938C490.533 743.344 487.532 746.538 483.652 748.805C480.515 750.638 476.887 751.881 473.309 752.459C465.847 753.663 426.488 754.519 420.715 752.923C414.185 751.118 408.813 742.299 405.812 736.683C394.509 745.416 374.375 757.872 359.919 758.37C339.391 748.619 329.731 720.565 321.614 700.983C322.813 709.596 324.335 727.757 323.373 735.974C323.114 738.178 322.411 740.333 321.766 742.449C321.609 742.618 321.454 742.79 321.294 742.957C318.875 745.473 315.653 747.42 312.387 748.568C305.301 751.057 279.351 753.243 271.264 753.243C261.637 753.242 257.952 750.469 251.369 743.916C247.161 739.727 236.041 727.044 234.502 721.728C232.357 714.324 233.501 690.465 233.49 681.804L233.554 589.859C228.557 590.385 223.521 590.654 218.51 591.012C218.319 600.361 219.346 609.789 219.816 619.127C221.062 643.918 222.84 668.457 225.078 693.178C226.412 707.909 228.573 722.955 229.048 737.7C229.177 741.721 229.462 746.281 226.423 749.32C223.835 751.91 219.978 753.844 216.481 754.928C211.279 756.54 205.172 756.714 199.777 757.612C186.86 759.762 173.738 763.071 160.596 763.289C156.531 763.356 154.799 763.122 151.846 760.185C148.178 756.538 135.674 742.782 134.351 738.622C132.196 731.846 133.483 713.083 133.425 704.914Q133.191 691.183 132.761 677.457C132.057 653.751 129.831 629.838 129.989 606.125C121.097 609.011 105.253 611.455 96.2417 608.863C91.0348 604.256 79.1088 588.241 75.9706 582.116C75.0277 580.276 74.5037 578.367 74.1133 576.345C72.0502 565.66 65.9363 509.134 67.4341 500.519C67.9528 497.535 69.7597 495.017 71.4254 492.57C73.4616 491.549 75.5594 490.682 77.8021 490.232C82.6036 489.266 87.7882 489.438 92.6748 488.947L125.84 485.368C123.238 480.412 119.537 476.234 116.033 471.915C113.599 468.915 110.813 465.703 110.146 461.779C108.722 453.403 111.097 440.235 111.93 431.481C113.426 415.749 114.723 399.903 116.831 384.244C119.74 362.632 123.61 341.051 125.879 319.366Q124.042 317.858 122.251 316.296C115.653 310.491 108.688 300.951 108.147 291.937C107.484 280.874 108.49 269.84 109.009 258.803C109.301 252.591 109.053 246.011 110.097 239.879C110.529 237.345 111.377 233.055 113.337 231.283C113.53 231.108 113.723 230.926 113.95 230.798C114.982 230.214 116.549 229.951 117.704 229.78C123.265 228.958 128.995 229 134.593 228.439C144.393 227.458 154.403 226.028 164.166 224.645C181.015 222.258 197.352 216.806 214.557 217.002C217.916 219.206 220.675 221.585 223.108 224.795C227.011 229.945 229.672 236.133 232.587 241.876C238.23 252.997 243.59 264.386 249.907 275.143C254.932 261.086 268.566 216.138 277.12 206.356C283.919 198.581 299.235 199.853 308.91 199.263ZM468.97 477.184C480.469 485.796 489.98 492.209 492.104 507.509C492.5 510.365 492.349 513.282 492.265 516.157C495.045 514.672 499.537 509.055 502.491 506.634Q504.86 504.695 507.331 502.888Q509.803 501.082 512.37 499.414Q514.937 497.746 517.591 496.221Q520.246 494.696 522.98 493.319Q525.714 491.942 528.52 490.718Q531.325 489.493 534.194 488.424Q537.063 487.355 539.986 486.445Q542.909 485.535 545.877 484.787C553.64 482.878 560.578 480.541 568.607 479.77C567.869 477.832 567.15 475.973 566.139 474.155C562.94 475.971 559.708 477.947 556.193 479.083C549.555 481.23 542.219 481.646 535.335 482.789C524.233 484.631 512.622 489.66 501.263 486.437C494.285 484.456 488.784 478.818 485.432 472.548C481.15 464.537 477.573 452.047 475.11 443.169C465.599 443.521 454.879 443.89 445.44 442.677C444.21 450.201 443.488 457.789 442.261 465.304C441.734 468.53 440.489 471.909 440.151 475.081C449.629 476.356 459.452 476.2 468.97 477.184ZM217.582 471.955L287.877 458.176L290.015 457.762C290.821 456.223 288.879 444.189 288.82 441.304C279.184 452.02 277.855 453.802 262.912 454.597C255.686 454.981 248.826 456.058 242.987 450.787C233.918 442.599 227.905 431.175 219.637 422.304C218.397 432.463 218.433 443.118 218.374 453.343C218.338 459.471 218.646 465.911 217.582 471.955ZM748.927 494.138C758.729 504.672 760.185 519.731 760.575 533.522L765.408 533.541C764.92 524.522 764.112 514.663 767.522 506.072C769.766 500.418 773.582 496.546 779.171 494.233C760.649 470.035 764.418 463.677 765.431 434.97C765.524 432.335 766.185 428.425 765.14 425.989C764.19 425.174 763.643 424.697 762.275 424.76C761.58 424.793 760.631 424.942 760.412 425.644C759.074 429.934 759.009 434.72 758.712 439.18Q757.99 450.829 757.47 462.489C756.822 474.784 756.41 483.905 748.927 494.138ZM381.323 640.071Q386.297 646.012 390.848 652.284C392.52 654.602 394.968 659.15 397.217 660.741C397.492 659.851 397.385 659.281 397.293 658.376C397.04 655.901 397.486 653.478 397.546 651.002C397.682 645.327 397.669 639.65 397.834 633.975C397.909 631.421 398.312 628.397 397.84 625.898C392.421 630.847 387.454 635.962 381.323 640.071ZM664.076 464.674C660.326 464.122 657.948 463.833 654.352 465.394C654.45 467.133 654.404 468.841 654.106 470.561C652.987 477.024 649.284 484.524 643.788 488.286C637.914 492.306 626.678 490.363 619.924 489.271C638.471 502.421 651.366 512.819 662.162 533.53C661.806 521.248 660.502 507.253 664.013 495.325C666.019 488.51 669.687 485.181 675.662 481.869C671.589 476.384 667.25 470.736 664.076 464.674Z"/>
	<defs>
		<linearGradient id="gradient_0" gradientUnits="userSpaceOnUse" x1="220.19762" y1="234.19281" x2="257.08133" y2="450.15063">
			<stop offset="0" stop-color="#F8C718"/>
			<stop offset="1" stop-color="#EC6D22"/>
		</linearGradient>
	</defs>
	<path fill="url(#gradient_0)" d="M290.814 214.697C300.579 213.069 335.923 211.74 345.823 213.228C346.835 214.404 346.697 216.11 346.806 217.592C347.978 241.975 348.209 266.397 349.55 290.78C350.652 310.828 352.741 330.877 354.189 350.911C355.593 370.326 357.488 389.712 358.738 409.132C359.264 417.308 360.097 425.716 359.965 433.898C341.784 435.219 323.751 438.055 305.536 438.891C304.797 438.729 304.693 438.907 304.384 438.374C303.493 436.835 299.493 328.939 299.543 318.075C299.557 314.953 299.632 311.849 300.683 308.877C299.55 307.651 301.127 306.362 299.334 304.261C293.564 311.084 292.981 321.222 288.681 328.803C285.542 340.941 280.524 352.482 277.086 364.531C272.516 379.268 269.259 394.581 263.746 409.001C253.506 409.842 243.735 410.46 233.463 409.948C230.538 401.741 227.208 393.7 223.95 385.622C222.263 381.441 220.217 377.059 218.995 372.729C213.839 362.023 198.126 320.128 197.15 309.927C197.071 309.105 196.912 308.727 196.41 308.078C195.288 307.863 195.463 307.694 194.392 308.326C192.192 315.383 192.625 324.907 192.323 332.301Q191.528 350.51 191.102 368.732C190.716 383.709 189.277 398.614 188.523 413.571C187.799 427.949 187.959 442.793 185.985 457.061Q171.384 457.177 156.859 455.68C148.891 454.936 135.866 452.669 128.186 453.725C127.428 453.747 126.884 453.282 126.223 452.933C125.192 451.361 125.355 449.857 125.485 448.073C126.239 437.661 127.951 427.24 129.262 416.883L136.791 356.74L142.876 303.489C143.732 296.276 144.18 288.998 145.395 281.835L145.307 281.368C144.051 280.321 133.825 281.972 131.423 282.147C129.457 282.382 127.441 282.406 125.462 282.509C125.516 276.536 125.868 270.545 125.814 264.576C125.764 259.205 125.172 253.632 125.753 248.29C125.976 246.237 126.809 244.351 127.614 242.472C143.911 241.677 160.448 238.775 176.527 236.043C185.388 234.537 197.331 231.793 206.141 232.091C207.256 233.097 207.391 234.023 207.839 235.41C215.899 251.857 223.06 268.7 230.902 285.235C234.393 292.594 238.418 299.641 242.027 306.93C245.273 313.487 247.739 321.594 251.941 327.505C257.049 295.619 268.204 265.352 280.762 235.74C283.641 228.954 286.412 220.636 290.814 214.697Z"/>
	<defs>
		<linearGradient id="gradient_1" gradientUnits="userSpaceOnUse" x1="244.55998" y1="343.01788" x2="233.23418" y2="408.60876">
			<stop offset="0" stop-color="#F29018"/>
			<stop offset="1" stop-color="#EA6C29"/>
		</linearGradient>
	</defs>
	<path fill="url(#gradient_1)" d="M218.995 372.729C220.295 372.917 219.726 373.074 220.723 372.344C220.98 370.774 210.226 347.4 209.715 342.203C209.584 340.872 209.99 340.383 210.758 339.375C211.846 337.945 212.877 337.477 214.622 337.264C216.106 338.171 215.761 338.725 216.484 340.188C217.189 341.614 218.111 341.563 219.532 342.019L220.059 342.916L221.277 343.323C222.475 342.757 223.619 342.136 224.77 341.482C225.237 342.628 225.418 343.502 225.506 344.735C226.895 345.87 228.468 344.98 229.504 346.243C229.164 347.615 228.776 348.787 228.206 350.08C227.634 352.205 227.621 353.466 228.474 355.505C228.584 355.769 228.687 356.036 228.796 356.3L229.037 356.875C229.299 356.844 229.562 356.817 229.824 356.782C231.063 356.617 232.18 356.177 233.36 355.794C234.244 355.507 233.891 355.594 234.898 355.545L234.905 356.404C233.869 357.443 232.883 358.457 231.983 359.622C232.192 361.042 233.171 361.806 234.128 362.782L234.149 363.926L233.023 365.06C233.596 366.11 233.679 365.883 234.759 366.215C236.636 365.669 239.09 362.298 240.81 363.267C241.621 363.723 241.318 363.509 241.968 364.136L242.525 363.462L243.869 363.482C244.211 363.977 244.618 364.338 245.05 364.753L245.99 364.69C247.244 362.79 246.256 360.313 247.477 358.389C247.616 358.169 247.775 357.963 247.924 357.75C248.831 357.759 249.706 357.748 250.604 357.881C251.436 358.005 252.254 358.066 253.093 358.124L252.401 356.751L252.83 356.534C252.922 355.354 253.003 354.643 253.881 353.853C255.465 354.621 255.758 355.818 257.472 356.565C258.029 355.451 258.717 353.432 259.803 352.882C259.503 355.108 258.697 358.644 259.949 360.672C260.651 361.808 262.61 362.841 263.754 363.579L264.384 363.35L264.017 361.473L264.895 359.48C266.369 358.983 267.894 358.244 269.448 358.453C270.162 359.882 270.818 361.194 271.831 362.435C273.025 362.788 274.017 362.89 275.248 362.958C275.913 363.467 276.504 363.925 277.086 364.531C272.516 379.268 269.259 394.581 263.746 409.001C253.506 409.842 243.735 410.46 233.463 409.948C230.538 401.741 227.208 393.7 223.95 385.622C222.263 381.441 220.217 377.059 218.995 372.729Z"/>
	<path fill="#F3B214" d="M252.83 356.534C252.922 355.354 253.003 354.643 253.881 353.853C255.465 354.621 255.758 355.818 257.472 356.565L257.665 357.675L256.431 358.275L257.585 359.293L257.276 360.267C257.457 362.153 257.434 363.861 256.158 365.409C254.561 367.346 251.917 367.202 249.65 367.167C247.671 367.137 245.262 366.777 243.685 368.219C243.51 368.378 243.374 368.576 243.203 368.739C243.062 368.872 242.588 369.233 242.398 369.379L241.8 368.952C241.891 367.926 242.082 367.224 242.497 366.283L241.968 364.136L242.525 363.462L243.869 363.482C244.211 363.977 244.618 364.338 245.05 364.753L245.99 364.69C247.244 362.79 246.256 360.313 247.477 358.389C247.616 358.169 247.775 357.963 247.924 357.75C248.831 357.759 249.706 357.748 250.604 357.881C251.436 358.005 252.254 358.066 253.093 358.124L252.401 356.751L252.83 356.534Z"/>
	<path fill="#EF751F" d="M252.83 356.534C252.922 355.354 253.003 354.643 253.881 353.853C255.465 354.621 255.758 355.818 257.472 356.565L257.665 357.675L256.431 358.275L257.585 359.293L257.276 360.267L255.675 362.017C254.422 362.079 254.413 362.277 253.317 361.524L253.102 360.029L254.553 358.447L252.83 356.534Z"/>
	<path fill="#EF751F" d="M220.059 342.916L221.277 343.323C222.475 342.757 223.619 342.136 224.77 341.482C224.886 342.95 225.052 344.247 224.136 345.528Q224.014 345.701 223.873 345.861Q223.733 346.02 223.576 346.163Q223.419 346.306 223.248 346.431Q223.076 346.556 222.892 346.662Q222.708 346.768 222.514 346.853Q222.32 346.939 222.117 347.002Q221.915 347.066 221.707 347.108Q221.498 347.149 221.287 347.168C219.963 347.291 218.957 346.812 217.836 346.197L217.424 345.242C217.88 344.173 218.125 343.607 219.283 343.102C219.527 342.995 219.8 342.978 220.059 342.916Z"/>
	<path fill="#FBFAFA" d="M290.814 214.697C300.579 213.069 335.923 211.74 345.823 213.228C346.835 214.404 346.697 216.11 346.806 217.592C346.585 217.654 346.364 217.72 346.142 217.777C343.273 218.518 339.185 218.079 336.18 218.113C328.58 218.197 301.48 218.447 295.838 221.172C294.613 221.764 293.923 222.777 293.198 223.884C289.542 229.466 287.007 236.69 284.449 242.841C274.951 265.677 267.793 288.999 259.784 312.345C258.093 317.274 255.922 326.465 253.834 330.631C253.353 331.59 253.28 331.685 252.264 332.108C252.062 330.573 252.002 329.05 251.941 327.505C257.049 295.619 268.204 265.352 280.762 235.74C283.641 228.954 286.412 220.636 290.814 214.697Z"/>
	<path fill="#FBFAFA" d="M145.395 281.835C146.896 282.386 148.797 282.834 149.827 284.095C150.141 288.475 149.042 293.372 148.534 297.757Q146.645 314.193 144.52 330.6Q139.883 372.27 133.87 413.764C132.076 426.976 131.077 440.716 128.186 453.725C127.428 453.747 126.884 453.282 126.223 452.933C125.192 451.361 125.355 449.857 125.485 448.073C126.239 437.661 127.951 427.24 129.262 416.883L136.791 356.74L142.876 303.489C143.732 296.276 144.18 288.998 145.395 281.835Z"/>
	<path fill="#FBFAFA" d="M127.614 242.472C143.911 241.677 160.448 238.775 176.527 236.043C185.388 234.537 197.331 231.793 206.141 232.091C207.256 233.097 207.391 234.023 207.839 235.41C207.301 236.862 206.943 238.45 205.676 239.433C200.412 240.848 194.701 241.273 189.309 242.107C179.45 243.63 169.593 245.328 159.667 246.354C152.153 247.131 137.493 246.915 131.103 249.661C129.365 253.32 131.35 276.303 131.423 282.147C129.457 282.382 127.441 282.406 125.462 282.509C125.516 276.536 125.868 270.545 125.814 264.576C125.764 259.205 125.172 253.632 125.753 248.29C125.976 246.237 126.809 244.351 127.614 242.472Z"/>
	<path fill="#F1A017" d="M252.401 356.751C251.29 353.391 254.274 353.732 255.347 351.137L255.169 350.728L253.685 350.762L253.295 350.272C254.233 348.681 255.149 347.359 255.319 345.488L253.598 344.77C250.832 345.227 251.888 346.43 250.536 347.886C249.831 348.646 247.828 349.585 246.839 350.081C244.595 351.205 242.398 352.405 239.896 351.581C239.358 350.303 239.581 349.936 239.861 348.556C238.574 347.658 234.184 349.585 232.096 349.339L231.56 347.725C232.361 346.409 233.664 344.545 235.167 344.001C236.704 343.446 238.739 343.419 240.229 344.05C240.427 345.082 240.437 345.535 241.122 346.363C242.289 345.608 243.374 344.875 244.746 344.557C245.047 344.488 245.349 344.429 245.651 344.365C245.714 343.593 245.822 342.967 245.998 342.22C248.543 341.325 253.614 337.988 256.072 338.797C257.414 339.239 257.709 339.561 258.43 340.676C257.997 342.188 257.612 342.337 256.44 343.323L256.507 343.011L256.978 343.685L257.485 343.857C257.928 343.331 258.365 342.819 258.876 342.355C259.646 341.657 259.588 341.456 260.681 341.508C261.263 342.593 261.407 342.99 262.466 343.68L264.106 343.065L264.029 343.639C264.183 344.862 263.995 345.316 264.878 346.228C267.127 344.634 267.66 343.926 270.421 343.456C271.648 343.812 272.56 344.158 273.855 344.053C272.671 345.307 271.325 346.532 270.395 347.986L271.66 349.891L271.339 350.665C270.009 350.997 269.295 351.016 268.301 351.988L268.813 354.442L269.091 356.028C267.539 356.619 265.487 357.111 264.514 358.507L264.895 359.48L264.017 361.473L264.384 363.35L263.754 363.579C262.61 362.841 260.651 361.808 259.949 360.672C258.697 358.644 259.503 355.108 259.803 352.882C258.717 353.432 258.029 355.451 257.472 356.565C255.758 355.818 255.465 354.621 253.881 353.853C253.003 354.643 252.922 355.354 252.83 356.534L252.401 356.751Z"/>
	<path fill="#EF921B" d="M270.421 343.456C271.648 343.812 272.56 344.158 273.855 344.053C272.671 345.307 271.325 346.532 270.395 347.986L270.119 347.819C269.03 347.863 269.484 347.781 268.453 348.07C267.562 348.32 266.618 348.667 265.699 348.785C264.017 349.002 263.172 347.727 262.085 346.688C262.623 345.063 262.764 344.78 264.029 343.639C264.183 344.862 263.995 345.316 264.878 346.228C267.127 344.634 267.66 343.926 270.421 343.456Z"/>
	<path fill="#EF921B" d="M266.889 355.255L268.813 354.442L269.091 356.028C267.539 356.619 265.487 357.111 264.514 358.507L264.895 359.48L264.017 361.473C263.026 360.543 262.402 359.917 261.793 358.672C262.224 357.06 262.773 356.895 264.05 355.879C264.959 355.266 265.815 355.356 266.889 355.255Z"/>
	<path fill="#F1A017" d="M264.05 355.879C263.233 354.15 263.095 353.017 263.507 351.145L264.199 350.791C265.774 352.04 265.122 353.797 266.889 355.255C265.815 355.356 264.959 355.266 264.05 355.879Z"/>
	<path fill="#EF751F" d="M243.332 345.43C244.819 345.128 246.978 345.63 248.238 346.461C248.909 346.903 248.732 347.16 248.809 347.879C247.803 349.276 246.123 349.541 244.557 350.035L243.871 349.772C243.11 350.543 242.602 351.12 241.556 351.464C240.607 350.683 240.621 350.698 240.396 349.489C241.029 347.758 242.07 346.743 243.332 345.43Z"/>
	<path fill="#EF921B" d="M235.957 344.038C236.986 344.205 237.883 344.315 238.843 344.742C239.593 345.076 239.464 345.267 239.719 345.983C238.941 347.254 238.108 347.634 236.829 348.27C236.574 348.276 236.319 348.289 236.064 348.289C234.852 348.291 234.137 348.478 233.285 347.572C233.662 346.086 234.916 345.101 235.957 344.038Z"/>
	<path fill="#EF751F" d="M252.411 339.511C253.27 339.519 254.154 339.505 255.008 339.598C256.31 339.741 256.883 339.862 257.729 340.864L257.372 341.964C255.913 342.478 255.054 342.854 253.505 342.341C252.606 341.197 252.581 340.969 252.411 339.511Z"/>
	<path fill="#EF921B" d="M249.497 341.471C250.605 341.952 251.054 342.237 251.734 343.242C251.472 344.722 250.964 345.085 249.993 346.199C249.259 345.214 248.401 344.492 247.472 343.703L247.42 342.978L249.497 341.471Z"/>
	<path fill="#F1A017" d="M270.349 342.913C272.404 343.222 274.317 343.216 276.302 342.557C276.326 341.471 273.045 338.652 272.112 337.608L272.292 337.098C274.002 337.963 273.84 338.345 274.46 340.089C275.724 340.619 276.884 340.306 278.22 340.166L278.388 339.19L277.267 340.032C276.116 339.918 275.901 339.78 274.94 339.118C274.493 337.868 274.462 337.756 274.792 336.476C275.916 335.461 276.061 335.522 277.589 335.374L276.948 335.604C276.392 334.179 275.391 335.763 274.148 334.831C277.269 332.191 283.102 335.158 286.559 332.798C287.026 331.345 287.487 330.38 288.407 329.158C288.497 329.039 288.59 328.921 288.681 328.803C285.542 340.941 280.524 352.482 277.086 364.531C276.504 363.925 275.913 363.467 275.248 362.958C274.017 362.89 273.025 362.788 271.831 362.435C270.818 361.194 270.162 359.882 269.448 358.453C267.894 358.244 266.369 358.983 264.895 359.48L264.514 358.507C265.487 357.111 267.539 356.619 269.091 356.028L268.813 354.442L268.301 351.988C269.295 351.016 270.009 350.997 271.339 350.665L271.66 349.891L270.395 347.986C271.325 346.532 272.671 345.307 273.855 344.053C272.56 344.158 271.648 343.812 270.421 343.456C267.66 343.926 267.127 344.634 264.878 346.228C263.995 345.316 264.183 344.862 264.029 343.639L264.106 343.065C262.945 341.599 262.537 341.377 262.444 339.456L262.24 339.506L262.19 340.365L263.128 339.416C265.187 339.996 266.692 340.68 268.417 341.941C269.143 342.471 269.502 342.696 270.349 342.913Z"/>
	<path fill="#EF751F" d="M273.855 344.053L275.566 343.751L276.236 344.36C276.159 347.032 274.596 350.478 273.185 352.711C272.166 353.156 271.499 353.054 270.411 352.933L269.832 353.504C270.926 354.801 271.959 353.842 272.892 355.445L272.431 356.998C271.643 357.301 271.683 357.48 270.848 357.116C270.146 356.81 269.681 356.498 269.091 356.028L268.813 354.442L268.301 351.988C269.295 351.016 270.009 350.997 271.339 350.665L271.66 349.891L270.395 347.986C271.325 346.532 272.671 345.307 273.855 344.053Z"/>
	<path fill="#FBFAFA" d="M300.683 308.877C300.817 307.516 300.821 306.577 301.499 305.355L302.251 305.785C304.355 314.037 302.878 326.956 303.057 335.857L305.19 416.662C305.341 420.989 306.814 435.875 305.536 438.891C304.797 438.729 304.693 438.907 304.384 438.374C303.493 436.835 299.493 328.939 299.543 318.075C299.557 314.953 299.632 311.849 300.683 308.877Z"/>
	<path fill="#F1A017" d="M219.532 342.019C219.459 341.836 219.395 341.649 219.312 341.469C218.98 340.744 218.668 340.461 218.071 339.966L218.245 339.855C218.117 339.613 217.946 339.389 217.859 339.128C217.794 338.931 217.774 338.14 217.765 337.909L218.274 337.784C219.556 339.015 220.767 340.313 222.344 341.166C223.233 341.095 224.115 341.037 225.006 341.011C226.258 342.268 225.893 344.287 227.581 344.932C229.07 345.5 229.872 344.07 230.626 345.976C230.134 347.24 229.63 348.488 229.076 349.726C229.868 349.909 230.537 350.001 231.341 350.067C231.865 351.773 230.657 354.197 230.128 355.927C231.059 355.841 231.488 355.632 232.265 355.175C235.294 353.389 237.721 355.769 241.058 352.979C241.946 353.354 242.768 353.766 243.608 354.239L244.08 354.082L244.315 353.471C244.574 352.816 244.857 352.19 245.161 351.555C247.111 351.537 249.718 352.419 251.156 353.763L251.523 354.979C250.926 355.938 250.944 356.146 249.898 356.693L250.096 354.54L249.16 353.471L248.488 353.813C248.411 354.694 248.916 356.912 248.645 357.193L247.548 357.174L247.924 357.75C247.775 357.963 247.616 358.169 247.477 358.389C246.256 360.313 247.244 362.79 245.99 364.69L245.05 364.753C244.618 364.338 244.211 363.977 243.869 363.482L242.525 363.462L241.968 364.136C241.318 363.509 241.621 363.723 240.81 363.267C239.09 362.298 236.636 365.669 234.759 366.215C233.679 365.883 233.596 366.11 233.023 365.06L234.149 363.926L234.128 362.782C233.171 361.806 232.192 361.042 231.983 359.622C232.883 358.457 233.869 357.443 234.905 356.404L234.898 355.545C233.891 355.594 234.244 355.507 233.36 355.794C232.18 356.177 231.063 356.617 229.824 356.782C229.562 356.817 229.299 356.844 229.037 356.875L228.796 356.3C228.687 356.036 228.584 355.769 228.474 355.505C227.621 353.466 227.634 352.205 228.206 350.08C228.776 348.787 229.164 347.615 229.504 346.243C228.468 344.98 226.895 345.87 225.506 344.735C225.418 343.502 225.237 342.628 224.77 341.482C223.619 342.136 222.475 342.757 221.277 343.323L220.059 342.916L219.532 342.019Z"/>
	<path fill="#EF751F" d="M242.525 363.462C242.403 363.21 242.289 362.954 242.159 362.705C241.029 360.536 238.953 359.853 236.823 358.991C235.841 358.594 236.241 358.814 235.439 358.224L235.234 357.672C236.527 355.498 240.423 355.055 242.616 354.103C243.383 357.228 241.05 360.033 244.152 362.13C244.072 362.573 244.027 363.061 243.869 363.482L242.525 363.462Z"/>
	<path fill="#EF921B" d="M229.037 356.875L228.796 356.3C228.687 356.036 228.584 355.769 228.474 355.505C227.621 353.466 227.634 352.205 228.206 350.08L230.097 350.92C230.368 352.013 230.485 351.932 230.079 353.072C229.635 354.319 229.335 355.588 229.037 356.875Z"/>
	<path fill="#F1A017" d="M299.334 304.261L300.273 304.501C301.22 303.992 301.658 303.472 302.307 302.623C303.31 302.844 303.535 303.028 304.359 303.546C305.992 304.573 308.077 305.008 309.312 306.547L309.198 307.355L308.509 307.789Q305.408 306.699 302.251 305.785L301.499 305.355C300.821 306.577 300.817 307.516 300.683 308.877C299.55 307.651 301.127 306.362 299.334 304.261Z"/>
	<path fill="#F3B214" d="M319.438 333.204L320.387 331.661L320.074 330.971C318.154 330.878 316.317 331.485 314.575 330.704C313.102 326.438 318.865 323.099 313.007 320.018L312.596 318.944C312.898 318.295 312.897 317.825 313.636 317.57C316.185 316.69 320.81 318.204 323.059 319.49C323.662 319.836 324.038 320.231 324.428 320.798C324.566 323.142 322.184 325.058 324.894 327.049C325.868 327.764 327.486 327.964 328.66 328.172C329.476 329.172 329.556 329.31 329.712 330.587C328.967 331.899 328.502 331.906 327.154 332.499L327.362 333.018C329.998 333.255 332.203 334.433 333.779 336.717C334.073 337.144 334.082 337.25 334.226 337.679L333.788 338.426C332.377 338.771 330.989 339.016 329.551 339.225C329.586 340.065 329.855 340.425 330.253 341.149C330.223 342.245 330.218 342.892 329.64 343.841C333.132 346 335.783 342.461 339.844 345.394C340.317 344.642 341.599 342.233 342.426 342.081C344.096 341.774 347.047 342.541 348.716 342.917L349.247 342.355C348.137 341.813 347.228 341.701 346.024 341.518C344.134 341.232 343.251 341.026 342.133 339.392C342.023 339.23 341.935 339.054 341.835 338.886C342.715 339.073 342.373 338.865 342.916 339.41C343.822 338.47 344.674 337.509 345.523 336.518C346.95 336.329 347.435 336.808 348.692 337.458C349.81 338.148 350.38 338.425 350.748 339.801C351.063 340.979 350.67 341.839 350.086 342.822C347.245 344.429 345.712 342.329 342.956 342.479C341.473 342.56 341.514 344.812 340.666 345.478C340.557 345.564 332.77 345.164 331.836 345.27L331.073 345.353C330.237 345.452 329.469 346.496 328.974 347.154C326.962 349.829 325.321 352.817 323.391 355.557C322.244 355.205 322.375 354.967 321.776 353.99C322.673 352.874 322.898 351.738 323.246 350.383L323.4 349.768C324.749 349.457 325.889 349.189 327.102 348.481L327.084 347.817C326.013 347.521 325.009 347.266 324.041 346.697C323.858 346.59 323.688 346.464 323.512 346.347C323.628 347.234 323.951 347.676 323.34 348.411C321.693 350.395 318.694 351.97 316.233 352.624L314.329 353.117C313.688 353.574 313.503 353.713 313.1 354.422C312.172 353.938 311.653 353.523 310.972 352.729C310.985 351.906 310.978 351.285 311.293 350.507C311.361 350.341 311.447 350.184 311.524 350.022L311.01 349.417L311.082 348.821C310.802 347.483 310.248 345.994 310.803 344.686C312.414 344.286 313.884 343.265 315.391 342.995C316.804 342.741 318.135 342.349 319.512 341.948L319.586 341.595C319.293 341.635 318.24 341.794 317.978 341.771C316.117 341.608 311.119 340.766 310.035 339.369C310.839 336.815 314.03 335.655 315.105 332.507C315.16 332.344 315.212 332.18 315.265 332.017C317.019 331.878 317.84 332.499 319.438 333.204Z"/>
	<path fill="#EF751F" d="M310.803 344.686C312.414 344.286 313.884 343.265 315.391 342.995C316.804 342.741 318.135 342.349 319.512 341.948L319.586 341.595C319.293 341.635 318.24 341.794 317.978 341.771C316.117 341.608 311.119 340.766 310.035 339.369C310.839 336.815 314.03 335.655 315.105 332.507C315.16 332.344 315.212 332.18 315.265 332.017C317.019 331.878 317.84 332.499 319.438 333.204L320.082 333.185C319.973 334.372 320.016 334.925 320.531 336.004L319.167 336.359L319.171 337.034C320.537 337.769 321.501 338.095 323.03 338.36L324.921 337.382C326.519 337.979 328.623 338.952 329.226 340.7C329.577 341.715 329.475 342.156 328.991 343.052C328.006 343.323 327.159 343.43 326.149 343.492C325.051 343.559 324.547 343.66 323.67 344.391C323.391 345.311 323.264 345.365 323.512 346.347C323.628 347.234 323.951 347.676 323.34 348.411C321.693 350.395 318.694 351.97 316.233 352.624L314.329 353.117C313.688 353.574 313.503 353.713 313.1 354.422C312.172 353.938 311.653 353.523 310.972 352.729C310.985 351.906 310.978 351.285 311.293 350.507C311.361 350.341 311.447 350.184 311.524 350.022L311.01 349.417L311.082 348.821C310.802 347.483 310.248 345.994 310.803 344.686Z"/>
	<path fill="#F1A017" d="M310.803 344.686C312.414 344.286 313.884 343.265 315.391 342.995C316.804 342.741 318.135 342.349 319.512 341.948L319.586 341.595C319.293 341.635 318.24 341.794 317.978 341.771C316.117 341.608 311.119 340.766 310.035 339.369C310.839 336.815 314.03 335.655 315.105 332.507C315.16 332.344 315.212 332.18 315.265 332.017C317.019 331.878 317.84 332.499 319.438 333.204L320.082 333.185C319.973 334.372 320.016 334.925 320.531 336.004L319.167 336.359L319.171 337.034C320.537 337.769 321.501 338.095 323.03 338.36L322.362 339.315C322.65 340.417 322.708 340.837 322.031 341.894C321.634 342.514 320.767 343.129 320.2 343.611C318.506 343.572 316.521 343.309 314.958 344.007C314.994 344.285 314.959 344.596 315.106 344.834C313.927 345.599 313.434 346.187 312.006 346.123L310.803 344.686Z"/>
	<path fill="#EF921B" d="M310.773 338.168C312.617 337.9 314.627 337.777 316.198 338.905L316.317 340.214C315.286 340.323 313.687 340.385 312.699 340.078C311.377 339.667 311.284 339.327 310.773 338.168Z"/>
	<path fill="#EF921B" d="M311.082 348.821C312.243 349.206 312.402 349.442 313.628 349.116C314.639 350.248 315.453 351.32 316.233 352.624L314.329 353.117C313.688 353.574 313.503 353.713 313.1 354.422C312.172 353.938 311.653 353.523 310.972 352.729C310.985 351.906 310.978 351.285 311.293 350.507C311.361 350.341 311.447 350.184 311.524 350.022L311.01 349.417L311.082 348.821Z"/>
	<path fill="#F3B214" d="M311.082 348.821C310.802 347.483 310.248 345.994 310.803 344.686L312.006 346.123C313.434 346.187 313.927 345.599 315.106 344.834L316.811 346.291L316.591 346.799L314.653 347.333L313.628 349.116C312.402 349.442 312.243 349.206 311.082 348.821Z"/>
	<path fill="#EF921B" d="M315.106 344.834C314.959 344.596 314.994 344.285 314.958 344.007C316.521 343.309 318.506 343.572 320.2 343.611C318.517 345.163 318.153 347.327 316.925 347.774L314.653 347.333L316.591 346.799L316.811 346.291L315.106 344.834Z"/>
	<path fill="#EF921B" d="M320.082 333.185C320.774 332.174 321.123 332.165 320.914 330.902C318.919 330.273 316.617 330.969 314.89 329.766C315.064 326.722 317.509 324.138 316.198 320.987Q314.852 320.264 313.526 319.504C313.94 318.358 314.008 318.585 315.034 318.078C317.738 318.142 321.546 318.899 323.387 321.089C323.863 321.655 323.667 321.906 323.605 322.582C322.221 324.115 322.58 325.513 321.161 326.306L321.685 326.445C324.172 327.126 326.872 328.066 328.734 329.916L328.937 330.897C327.917 331.685 326.76 331.727 325.525 331.903L325.413 332.387C327.923 334.467 331.332 334.204 333.067 337.306L332.789 338.096C331.488 338.435 330.676 338.509 329.346 338.307C328.075 337.379 326.572 335.289 325.005 335.397C323.409 335.507 322.23 336.146 320.531 336.004C320.016 334.925 319.973 334.372 320.082 333.185Z"/>
	<path fill="#EF751F" d="M342.916 339.41C343.822 338.47 344.674 337.509 345.523 336.518C346.95 336.329 347.435 336.808 348.692 337.458C348.514 339.153 348.708 339.954 347.517 341.219C345.81 341.347 344.274 340.431 342.916 339.41Z"/>
	<path fill="#F1A017" d="M288.726 256.06C287.774 256.195 286.932 256.556 286.101 256.033L286.391 255.832C287.231 253.8 287.862 252.039 288.092 249.844C289.771 247.402 292.398 246.668 295.217 246.097C297.728 245.588 300.327 245.467 302.565 246.857L302.981 247.712C302.422 249.186 301.067 249.962 299.699 250.626C298.045 251.429 296.5 251.059 294.754 250.824C294.9 251.03 295.057 251.228 295.192 251.442C295.735 252.304 295.769 252.727 295.797 253.71C295.337 254.811 294.977 255.595 294.196 256.52C292.344 256.681 290.553 256.333 288.726 256.06Z"/>
	<path fill="#EF921B" d="M288.726 256.06C288.473 254.268 288.089 252.777 288.857 251.081C290.065 250.136 290.19 250.088 291.72 249.978C293.104 250.603 294.409 251.529 294.745 253.136C294.966 254.2 294.486 255.499 294.196 256.52C292.344 256.681 290.553 256.333 288.726 256.06Z"/>
	<path fill="#F1A017" d="M323.512 346.347C323.688 346.464 323.858 346.59 324.041 346.697C325.009 347.266 326.013 347.521 327.084 347.817L327.102 348.481C325.889 349.189 324.749 349.457 323.4 349.768L323.246 350.383C322.898 351.738 322.673 352.874 321.776 353.99C321.736 353.954 321.699 353.916 321.656 353.884C320.431 352.982 320.418 352.867 318.94 353.021C317.902 356.899 318.038 357.925 319.767 361.464C318.265 362.923 316.206 365.624 314.243 366.29C313.561 365.689 313.705 366.026 313.623 365.096C313.527 364.011 313.516 364.429 313.872 363.327L311.471 360.579C312.451 359.93 313.095 360.04 314.236 359.958L314.162 359.452L311.833 359.196C311.054 358.457 310.773 358.469 310.618 357.363C311.843 357.03 312.543 357.073 313.378 356.061L313.1 354.422C313.503 353.713 313.688 353.574 314.329 353.117L316.233 352.624C318.694 351.97 321.693 350.395 323.34 348.411C323.951 347.676 323.628 347.234 323.512 346.347Z"/>
	<path fill="#F1A017" d="M328.306 302.62C328.888 302.7 329.267 302.959 329.779 303.235C330.198 304.369 330.324 304.874 329.624 306.029C328.735 307.498 326.273 308.802 324.618 309.014C323.71 309.13 323.223 309.247 322.42 309.686C320.899 310.517 319.765 311.197 317.975 310.663C317.252 310.448 316.797 310.31 316.056 310.224L315.151 310.123C313.995 309.863 313.436 309.696 312.575 308.867C313.886 306.601 324.84 304.027 327.745 302.852L328.306 302.62Z"/>
	<path fill="#EF921B" d="M308.881 226.201C309.451 225.973 309.847 225.958 310.453 225.919L310.284 226.471C308.999 227.043 307.644 227.542 306.387 228.159C305.055 228.812 304.116 229.69 303.622 231.055C304.199 231.873 305.214 232.912 306.242 233.135C307.843 233.482 308.208 233.496 309.587 234.502C310.215 234.961 309.827 234.849 310.69 234.763C310.712 233.625 310.732 234.039 310.653 232.98L310.595 232.277C311.29 230.882 311.942 228.876 313.5 228.322C315.33 227.67 317.302 228.201 318.998 228.964L318.875 229.451C317.053 229.795 315.862 229.721 314.077 229.23L313.587 229.229C311.986 231.262 312.431 233.341 312.502 235.725C312.548 237.252 312.538 238.71 311.448 239.878C310.303 240.152 309.909 240.133 308.748 239.745C307.384 239.289 305.909 238.508 305.265 237.175C305.636 235.787 306.494 235.463 307.588 234.599C306.547 234.058 305.376 233.731 304.374 233.14C303.258 232.482 302.81 231.576 302.53 230.349C302.725 228.959 303.049 228.191 304.121 227.226C305.45 226.029 307.212 226.209 308.881 226.201Z"/>
	<path fill="#EF751F" d="M332.44 252.74C333.549 251.344 334.247 250.638 335.904 249.946C336.832 251.821 338.461 254.87 337.718 256.989C337.272 258.262 336.539 258.82 335.418 259.459C333.892 259.586 333.632 259.514 332.241 258.86C331.483 257.824 331.108 257.48 331.317 256.101C331.482 255.015 332.06 253.78 332.44 252.74Z"/>
	<path fill="#F1A017" d="M340.718 310.513C341.427 310.884 342.123 311.263 342.812 311.671L342.718 312.646C340.823 314.921 337.624 317.226 334.811 318.141L334.218 317.493C333.351 315.663 331.733 315.183 330.675 313.659C330.166 312.924 329.916 312.742 330.11 311.837C331.081 311.645 330.705 311.618 331.662 311.822C332.998 312.108 334.325 312.497 335.683 312.67C337.707 312.928 338.781 312.076 340.281 310.871L340.718 310.513Z"/>
	<path fill="#EF921B" d="M219.497 304.485L221.131 304.795C222.248 305.885 222.35 305.973 222.65 307.495C222.219 308.831 221.764 309.633 220.518 310.385C219.122 311.227 217.272 310.671 215.777 310.388C214.424 310.007 213.616 309.721 212.474 308.849L212.439 307.876C214.219 306.135 217.198 305.382 219.497 304.485Z"/>
	<path fill="#EF921B" d="M172.17 247.249C173.439 247.311 174.536 247.613 175.701 248.107C177.269 248.772 179.113 249.633 179.664 251.395C179.908 252.176 179.255 252.732 178.86 253.376C177.144 253.881 175.748 254.321 173.981 253.699C172.867 253.306 171.907 252.42 171.561 251.277C171.117 249.808 171.616 248.583 172.17 247.249Z"/>
	<path fill="#EF751F" d="M146.462 362.921C148.682 362.892 151.491 362.916 153.628 363.485C154.757 363.785 154.94 363.952 155.518 364.885C154.937 366.231 154.474 366.466 153.332 367.338C151.896 367.872 150.006 368.387 148.466 368.128C147.123 367.902 146.699 367.408 145.917 366.364C145.682 364.868 145.909 364.27 146.462 362.921Z"/>
	<path fill="#F1A017" d="M211.618 325.246C214.075 325.156 216.788 325.389 219.055 326.416C220.217 326.943 220.573 327.417 221.081 328.553C220.424 329.739 220.1 330.209 218.873 330.812C216.339 329.78 213.69 329.775 211.215 328.916C210.131 328.54 210.148 328.393 209.699 327.399C210.178 326.316 210.668 325.933 211.618 325.246Z"/>
	<path fill="#F1A017" d="M313.871 266.232C314.511 266.324 314.866 266.448 315.369 266.865C317.273 268.44 324.415 272.083 325.169 272.959C325.519 273.367 325.592 273.948 325.804 274.443C324.896 274.747 323.974 274.993 323.005 274.904C320.279 274.654 316.652 272.32 314.879 270.331C313.628 268.928 313.854 267.991 313.871 266.232Z"/>
	<path fill="#EF921B" d="M206.808 275.831C206.862 275.845 206.918 275.853 206.969 275.874C207.587 276.131 208.223 276.219 208.43 276.914C208.916 278.547 208.003 280.417 207.11 281.746C205.98 283.428 205.11 283.43 203.309 283.779C202.094 282.658 201.317 281.983 201.13 280.289C202.338 278.496 204.907 277.89 206.496 276.179C206.602 276.064 206.704 275.947 206.808 275.831Z"/>
	<path fill="#EF921B" d="M332.44 252.74C332.101 251.048 331.473 249.056 332.132 247.376C332.58 246.235 333.725 245.248 334.877 244.826C336.245 244.325 336.992 244.388 338.328 244.882C339.12 245.907 339.296 245.994 339.335 247.267C338.305 248.128 337.22 248.581 336.004 249.107L335.904 249.946C334.247 250.638 333.549 251.344 332.44 252.74Z"/>
	<path fill="#EF921B" d="M194.955 287.917C195.669 287.928 196.591 287.867 197.275 288.051C198.542 288.391 198.715 288.71 199.333 289.755C199.46 292.083 198.049 294.021 196.716 295.816C195.249 295.417 194.176 295.09 192.933 294.152C192.798 292.802 194.246 291.829 195.029 290.725C195.584 289.943 195.113 288.841 194.955 287.917Z"/>
	<path fill="#F3B214" d="M332.904 359.381C332.324 358.389 331.756 357.451 331.381 356.358C332.033 354.867 332.453 353.34 333.94 352.498C335.257 352.299 336.329 352.355 337.446 353.152C338.589 353.967 338.95 354.653 339.349 355.957C338.534 356.996 338.249 356.986 336.917 357.048C335.376 357.121 333.861 355.455 332.61 356.144C332.95 357.712 334.235 358.356 335.424 359.387L334.003 359.982L332.904 359.381Z"/>
	<path fill="#EF751F" d="M157.117 279.416C158.25 279.386 159.029 279.443 160.106 279.807C160.868 280.633 161.661 281.231 161.609 282.476C161.544 284.031 160.776 284.435 159.69 285.331C157.741 285.118 156.139 285.064 154.838 283.479C154.958 281.756 156.077 280.697 157.117 279.416Z"/>
	<path fill="#F1A017" d="M224.622 335.321C226.933 335.295 230.296 335.643 232.103 337.162C232.518 338.572 232.416 338.743 231.969 340.163C229.605 339.967 226.522 339.418 224.43 338.329C223.901 337.006 224.219 336.652 224.622 335.321Z"/>
	<path fill="#F1A017" d="M324.347 361.319C324.846 359.583 324.462 359.391 323.689 357.821L324 357.371C325.222 357.423 326.627 357.346 327.768 357.818C328.482 358.112 328.754 359.466 329.035 360.171L330.362 361.827L331.268 362.337C330.22 362.907 329.397 363.225 328.226 363.457C326.543 363.111 325.662 362.393 324.347 361.319Z"/>
	<path fill="#F1A017" d="M324.347 361.319C324.846 359.583 324.462 359.391 323.689 357.821L324 357.371C325.222 357.423 326.627 357.346 327.768 357.818C328.482 358.112 328.754 359.466 329.035 360.171C327.027 360.31 326.013 360.138 324.347 361.319Z"/>
	<path fill="#EF921B" d="M176.088 283.538C176.974 283.687 177.526 284.085 178.295 284.531C178.934 285.845 178.855 285.778 178.414 287.187C177.111 288.37 176.733 288.39 175.069 288.731C173.497 287.897 171.925 287.152 171.392 285.413C172.45 284.127 174.517 283.916 176.088 283.538Z"/>
	<path fill="#F1A017" d="M198.786 272.048C198.66 271.926 198.529 271.809 198.409 271.682C197.21 270.418 196.902 269.791 196.969 268.112L197.811 267.484C199.123 267.466 199.824 267.729 201.002 268.291C201.157 268.397 201.302 268.519 201.467 268.609C202.505 269.173 203.667 269.207 204.819 269.327L205.531 269.999C205.378 270.901 205.603 270.897 204.876 271.288C203.389 272.088 200.489 272.106 198.786 272.048Z"/>
	<path fill="#EF921B" d="M198.786 272.048C198.66 271.926 198.529 271.809 198.409 271.682C197.21 270.418 196.902 269.791 196.969 268.112L197.811 267.484C199.123 267.466 199.824 267.729 201.002 268.291C200.514 269.973 200.272 270.957 198.786 272.048Z"/>
	<path fill="#F1A017" d="M309.331 328.664C309.698 328.635 310.163 328.586 310.522 328.617C311.838 328.729 311.949 328.925 312.737 329.893L312.579 331.289C311.739 332.687 310.875 333.097 309.477 333.795C308.119 334.021 307.561 334.314 306.3 333.7L306.207 332.836C307.059 331.129 307.998 330.019 309.331 328.664Z"/>
	<path fill="#EF751F" d="M184.071 299.488C185.832 299.356 187.335 299.233 188.802 300.284C188.547 301.872 187.945 302.202 186.854 303.345C186.266 303.386 185.585 303.472 184.992 303.385C183.728 303.198 183.14 302.788 182.342 301.844C182.704 300.479 182.965 300.405 184.071 299.488Z"/>
	<path fill="#F1A017" d="M191.299 302.411C191.591 302.707 191.932 303.022 192.133 303.39C192.778 304.572 192.762 305.07 192.464 306.286C191.104 307.431 190.645 307.426 188.942 307.716C187.967 306.688 187.552 306.407 187.226 304.998C187.943 303.686 189.968 303.039 191.299 302.411Z"/>
	<path fill="#F1A017" d="M184.629 269.159C186.382 269.611 188.359 270.192 189.657 271.531C190.563 272.465 190.436 272.639 190.366 273.864C188.511 274.17 187.17 274.236 185.519 273.228C184.535 271.786 184.592 270.821 184.629 269.159Z"/>
	<path fill="#F1A017" d="M218.6 284.439C219.533 284.531 220.188 284.735 221.046 285.11L221.174 285.948C220.092 287.138 218.957 288.249 217.798 289.362C217.217 289.543 216.728 289.354 216.141 289.245C215.64 288.328 215.402 287.774 215.73 286.672C216.159 285.232 217.384 284.998 218.6 284.439Z"/>
	<path fill="#F3B214" d="M193.727 251.368C195.262 251.451 196.473 251.568 197.913 252.125C198.699 253.436 198.517 253.582 198.278 255.121C196.882 255.224 196.061 255.099 194.742 254.632C193.743 253.323 193.834 252.961 193.727 251.368Z"/>
	<path fill="#EF921B" d="M181.549 348.122C182.682 348.751 183.163 349.118 183.814 350.245C183.034 351.422 182.489 351.365 181.172 351.781C179.85 351.194 179.097 351.11 178.357 349.838C179.392 348.701 180.113 348.607 181.549 348.122Z"/>
	<path fill="#EF751F" d="M333.662 347.268C335.003 347.324 336.069 347.289 337.249 348.026C337.582 349.483 337.24 349.919 336.718 351.288C335.443 351.092 334.786 350.729 333.725 350.006C333.193 348.665 333.233 348.655 333.662 347.268Z"/>
	<path fill="#F1A017" d="M319.935 312.984C321.378 312.934 322.421 312.934 323.808 313.452C324.469 314.681 324.321 314.731 324.001 316.113C322.503 316.068 321.262 316.136 319.939 315.323C319.502 314.181 319.559 314.16 319.935 312.984Z"/>
	<path fill="#EF751F" d="M313.872 363.327C313.03 363.846 311.862 364.14 310.843 363.87C309.557 363.529 309.406 362.899 308.839 361.824L309.27 360.82C310.243 360.422 310.424 360.43 311.471 360.579L313.872 363.327Z"/>
	<path fill="#EF921B" d="M343.837 349.755C344.93 350.379 345.618 351.503 345.913 352.747C346.264 354.229 346.045 354.292 345.245 355.497C344.444 355.668 343.993 355.677 343.194 355.625L342.95 354.656C343.444 353.141 343.69 351.864 343.804 350.273L343.837 349.755Z"/>
	<path fill="#F1A017" d="M335.424 359.387L335.063 360.245C334.664 361.21 334.389 362.155 334.124 363.164L333.502 363.264L332.272 362.049L331.268 362.337L330.362 361.827L332.904 359.381L334.003 359.982L335.424 359.387Z"/>
	<path fill="#EF921B" d="M148.227 356.804Q148.291 356.752 148.359 356.706Q148.427 356.661 148.499 356.621Q148.571 356.582 148.646 356.549Q148.721 356.517 148.799 356.491Q148.877 356.465 148.957 356.446Q149.037 356.428 149.118 356.416Q149.199 356.405 149.281 356.401Q149.363 356.397 149.445 356.401Q149.527 356.404 149.608 356.415Q149.69 356.426 149.77 356.444Q149.85 356.463 149.928 356.488Q150.006 356.513 150.081 356.546Q150.156 356.578 150.228 356.617Q150.301 356.656 150.369 356.702Q150.437 356.747 150.501 356.799Q150.565 356.85 150.624 356.907Q150.683 356.964 150.737 357.026Q150.79 357.088 150.838 357.155Q150.886 357.222 150.927 357.292Q150.969 357.363 151.004 357.438Q151.039 357.512 151.067 357.589Q151.095 357.666 151.116 357.745Q151.137 357.825 151.151 357.906Q151.164 357.987 151.171 358.068Q151.177 358.15 151.176 358.232Q151.175 358.314 151.166 358.396Q151.158 358.478 151.142 358.558Q151.126 358.639 151.103 358.717Q151.08 358.796 151.049 358.872Q151.019 358.949 150.982 359.022Q150.945 359.095 150.902 359.165Q150.859 359.235 150.809 359.3Q150.732 359.402 150.641 359.492Q150.551 359.582 150.448 359.658Q150.346 359.734 150.234 359.796Q150.122 359.857 150.002 359.902Q149.883 359.946 149.758 359.974Q149.633 360.002 149.506 360.012Q149.379 360.021 149.251 360.013Q149.124 360.005 148.999 359.979Q148.874 359.953 148.754 359.91Q148.634 359.866 148.521 359.807Q148.408 359.747 148.305 359.672Q148.202 359.597 148.11 359.508Q148.018 359.419 147.94 359.319Q147.861 359.218 147.798 359.107Q147.735 358.996 147.687 358.878Q147.64 358.759 147.61 358.635Q147.58 358.511 147.567 358.384Q147.555 358.257 147.561 358.13Q147.566 358.002 147.589 357.877Q147.613 357.751 147.654 357.63Q147.694 357.509 147.752 357.395Q147.809 357.281 147.882 357.176Q147.954 357.072 148.041 356.978Q148.128 356.884 148.227 356.804Z"/>
	<path fill="#F1A017" d="M207.561 300.017C209.235 300.07 210.379 299.798 211.736 300.825L211.774 302.209C210.073 302.212 208.6 302.487 207.296 301.345L207.561 300.017Z"/>
	<path fill="#F1A017" d="M172.632 320.126C173.681 320.044 174.694 320.116 175.743 320.173C176.751 321.088 176.628 321.201 176.789 322.577C176.231 322.515 175.193 322.483 174.643 322.252C173.419 321.737 173.206 321.225 172.632 320.126Z"/>
	<path fill="#F3B214" d="M188.456 285.958C188.554 285.96 188.651 285.96 188.748 285.964C190.077 286.021 190.94 285.764 191.877 286.768L191.776 288.143C190.335 287.976 189.3 288.091 188.116 287.201L188.456 285.958Z"/>
	<defs>
		<linearGradient id="gradient_2" gradientUnits="userSpaceOnUse" x1="591.02148" y1="499.79117" x2="559.22711" y2="721.67584">
			<stop offset="0" stop-color="#53A738"/>
			<stop offset="1" stop-color="#40AD71"/>
		</linearGradient>
	</defs>
	<path fill="url(#gradient_2)" d="M506.984 692.435C505.622 690.734 504.296 689.017 503.1 687.193C481.861 654.787 480.988 609.011 488.72 572.235C494.52 544.647 506.774 522.47 530.856 506.898C548.023 495.798 572.204 490.962 592.314 495.33C605.71 498.239 624.738 507.946 632.27 519.751C635.099 522.653 637.365 527.297 639.494 530.834C641.902 534.832 644.566 538.786 646.468 543.057C655.51 563.359 656.428 588.762 656.168 610.761C655.878 635.376 650.788 657.485 637.064 678.226C638.811 680.132 640.656 681.992 642.142 684.112C652.033 694.978 662.038 705.966 671.358 717.323C667.663 721.426 663.178 724.025 659.201 727.736C651.676 734.757 645.911 744.222 636.892 749.539C632.27 743.896 608.527 715.254 607.127 711.082C606.996 711.171 606.866 711.262 606.733 711.348C591.212 721.453 573.047 725.596 554.772 721.883C539.905 718.862 527.929 711.514 516.465 701.906C513.045 699.041 509.465 696.199 506.984 692.435Z"/>
	<path fill="#24A795" d="M642.142 684.112C652.033 694.978 662.038 705.966 671.358 717.323C667.663 721.426 663.178 724.025 659.201 727.736C651.676 734.757 645.911 744.222 636.892 749.539C632.27 743.896 608.527 715.254 607.127 711.082C608.149 710.805 611.975 717.305 614.693 718.142C617.14 717.716 619.592 717.98 622.054 717.76C627.348 717.285 633.45 714.062 637.843 711.212C644.513 706.885 648.92 703.369 650.616 695.27C648.067 692.45 642.755 687.782 642.142 684.112Z"/>
	<path fill="#FBFAFA" d="M506.984 692.435C505.622 690.734 504.296 689.017 503.1 687.193C481.861 654.787 480.988 609.011 488.72 572.235C494.52 544.647 506.774 522.47 530.856 506.898C548.023 495.798 572.204 490.962 592.314 495.33C605.71 498.239 624.738 507.946 632.27 519.751C632.094 519.683 631.911 519.63 631.742 519.547C628.034 517.72 623.896 512.517 619.739 509.97C613.901 506.391 607.917 504.302 601.404 502.309C585.81 497.538 572.42 496.572 556.536 501.09C550.812 502.718 545.025 504.883 539.858 507.864C527.278 515.12 512.513 529.992 505.446 542.724C501.921 549.074 498.615 555.884 496.327 562.775C486.814 591.42 485.377 631.218 493.823 660.31C495.592 666.404 497.673 672.861 500.25 678.658C501.983 682.555 506.816 688.367 506.984 692.435Z"/>
	<path fill="#040403" d="M551.187 666.713C550.073 665.129 547.706 663.861 546.132 662.745C540.117 658.484 537.992 652.376 535.391 645.705C527.459 625.357 528.921 590.118 537.947 570.001C542.061 560.832 549.894 551.654 559.489 548.046C567.88 544.89 578.538 545.345 586.654 549.153C594.147 552.669 602.147 560.698 604.906 568.519C606.951 569.115 607.92 570.514 608.926 572.308C617.656 587.877 616.86 624.503 611.783 641.308C610.748 644.734 609.567 647.748 607.558 650.727C600.834 644.375 594.036 638.134 587.794 631.3C581.927 637.399 575.989 644.126 569.28 649.282C574.58 656.025 580.948 661.937 586.125 668.721L587.226 668.452C588.504 669.329 589.302 671.278 590.056 672.634C585.1 675.129 580.314 676.656 574.763 677.108C567.702 677.683 560.858 676.873 555.301 672.043C553.793 670.733 551.339 668.801 551.187 666.713Z"/>
	<path fill="#FBFAFA" d="M604.906 568.519C606.951 569.115 607.92 570.514 608.926 572.308C617.656 587.877 616.86 624.503 611.783 641.308C610.748 644.734 609.567 647.748 607.558 650.727C600.834 644.375 594.036 638.134 587.794 631.3C581.927 637.399 575.989 644.126 569.28 649.282L565.928 645.413C572.439 639.127 578.759 632.621 585.156 626.218C591.609 634.952 599.697 642.12 608.029 649.006C607.716 638.271 609.659 628.861 611.226 618.367C613.924 600.295 610.734 585.417 604.906 568.519Z"/>
	<path fill="#FBFAFA" d="M551.187 666.713C558.119 671.788 564.467 674.678 573.321 673.368C577.922 672.687 582.023 670.827 586.125 668.721L587.226 668.452C588.504 669.329 589.302 671.278 590.056 672.634C585.1 675.129 580.314 676.656 574.763 677.108C567.702 677.683 560.858 676.873 555.301 672.043C553.793 670.733 551.339 668.801 551.187 666.713Z"/>
	<path fill="#FBFAFA" d="M580.421 585.619C580.575 585.621 580.73 585.619 580.884 585.625C584.343 585.765 587.757 585.977 590.14 588.78C594.67 594.109 593.128 606.72 592.611 613.225C590.575 613.115 588.503 612.959 586.464 612.995C577.802 613.15 568.541 620.604 562.815 626.507L556.445 633.946C556.356 620.448 560.47 605.431 568.035 594.185C571.297 589.334 574.68 586.749 580.421 585.619Z"/>
	<path fill="#24A795" d="M251.008 494.613C254.057 491.303 257.77 488.547 261.607 486.219C281.454 474.175 300.823 471.711 323.504 474.071C329.649 474.71 336.071 475.44 342.07 476.927Q343.2 477.211 344.315 477.549Q345.43 477.887 346.527 478.279Q347.624 478.671 348.7 479.115Q349.777 479.56 350.831 480.056Q351.885 480.553 352.913 481.1Q353.942 481.647 354.943 482.243Q355.944 482.839 356.914 483.483Q357.885 484.128 358.823 484.818Q359.761 485.509 360.665 486.244Q361.568 486.979 362.435 487.758Q363.302 488.536 364.13 489.356Q364.958 490.175 365.745 491.034Q366.532 491.893 367.277 492.789Q368.022 493.684 368.722 494.616Q369.422 495.547 370.076 496.51Q370.73 497.474 371.337 498.469C373.847 502.002 376.439 505.635 378.291 509.563C380.481 514.207 381.532 519.05 382.705 524.021C385.44 535.612 387.048 545.365 385.069 557.287C382.075 575.325 373.489 590.435 359.867 602.543C356.495 605.541 342.606 615.009 341.521 618.534C341.187 619.622 341.833 620.051 342.42 620.877C346.333 626.389 350.936 631.233 355.33 636.344C367.609 650.627 386.501 671.938 394.146 688.802C383.097 696.329 365.076 714.003 353.666 718.366C353.121 718.574 352.582 718.784 352.033 718.981C343.721 710.029 336.271 685.565 330.821 673.567C323.526 657.506 308.206 638.336 295.026 626.673C294.921 636.828 295.47 646.99 295.827 657.137C296.075 664.169 296.055 671.206 296.553 678.227C297.325 689.126 298.672 700.029 299.2 710.937Q284.244 711.574 269.274 711.594C263.413 711.635 257.059 711.226 251.263 711.953L250.08 711.342C249.332 710.291 249.354 709.333 249.312 708.087C249.185 704.25 249.662 700.352 249.703 696.504C249.827 685.021 250.018 673.498 249.92 662.017Q249.284 578.307 251.008 494.613Z"/>
	<path fill="#FBFAFA" d="M251.008 494.613C254.057 491.303 257.77 488.547 261.607 486.219C281.454 474.175 300.823 471.711 323.504 474.071C329.649 474.71 336.071 475.44 342.07 476.927Q343.2 477.211 344.315 477.549Q345.43 477.887 346.527 478.279Q347.624 478.671 348.7 479.115Q349.777 479.56 350.831 480.056Q351.885 480.553 352.913 481.1Q353.942 481.647 354.943 482.243Q355.944 482.839 356.914 483.483Q357.885 484.128 358.823 484.818Q359.761 485.509 360.665 486.244Q361.568 486.979 362.435 487.758Q363.302 488.536 364.13 489.356Q364.958 490.175 365.745 491.034Q366.532 491.893 367.277 492.789Q368.022 493.684 368.722 494.616Q369.422 495.547 370.076 496.51Q370.73 497.474 371.337 498.469C371.147 498.445 370.951 498.447 370.766 498.396C367.736 497.56 360.462 488.807 356.384 486.328C349.64 482.228 340.957 480.246 333.245 478.968C309.831 475.09 292.622 476.661 270.824 486.462C264.638 489.244 258.821 492.653 253.035 496.17C252.727 500.579 252.953 504.961 252.858 509.37C252.586 522.089 252.537 534.778 252.48 547.5L252.462 647.403C252.545 661.476 252.204 675.443 251.944 689.506C251.807 696.884 252.177 704.634 251.263 711.953L250.08 711.342C249.332 710.291 249.354 709.333 249.312 708.087C249.185 704.25 249.662 700.352 249.703 696.504C249.827 685.021 250.018 673.498 249.92 662.017Q249.284 578.307 251.008 494.613Z"/>
	<path fill="#040403" d="M303.484 523.312C309.909 523.138 316.843 523.442 322.795 526.104C327.918 527.443 331.942 530.938 334.662 535.407C337.003 539.256 338.25 543.466 339.021 547.881C341.928 553.118 341.312 562.414 339.74 568.025Q339.457 569.022 339.126 570.005Q338.794 570.987 338.415 571.952Q338.036 572.917 337.61 573.862Q337.185 574.807 336.713 575.731Q336.242 576.654 335.726 577.553Q335.21 578.452 334.651 579.325Q334.091 580.198 333.49 581.042Q332.889 581.887 332.247 582.701Q331.605 583.515 330.925 584.297Q330.244 585.079 329.526 585.826Q328.807 586.574 328.053 587.286Q327.3 587.997 326.512 588.671Q325.724 589.345 324.904 589.98Q324.085 590.614 323.235 591.208Q322.385 591.802 321.507 592.353Q320.63 592.905 319.726 593.413C314.058 596.543 302.386 601.453 295.837 599.63C295.276 599.473 294.989 599.328 294.421 599.091C294.059 599.269 294.295 599.207 293.692 599.037C293.403 591.41 292.779 529.958 294.964 525.896C297.436 523.908 300.445 523.681 303.484 523.312Z"/>
	<path fill="#FBFAFA" d="M339.021 547.881C341.928 553.118 341.312 562.414 339.74 568.025Q339.457 569.022 339.126 570.005Q338.794 570.987 338.415 571.952Q338.036 572.917 337.61 573.862Q337.185 574.807 336.713 575.731Q336.242 576.654 335.726 577.553Q335.21 578.452 334.651 579.325Q334.091 580.198 333.49 581.042Q332.889 581.887 332.247 582.701Q331.605 583.515 330.925 584.297Q330.244 585.079 329.526 585.826Q328.807 586.574 328.053 587.286Q327.3 587.997 326.512 588.671Q325.724 589.345 324.904 589.98Q324.085 590.614 323.235 591.208Q322.385 591.802 321.507 592.353Q320.63 592.905 319.726 593.413C314.058 596.543 302.386 601.453 295.837 599.63C295.276 599.473 294.989 599.328 294.421 599.091C305.039 595.723 318.81 590.303 326.748 582.204C336.405 572.353 339.157 561.158 339.021 547.881Z"/>
	<path fill="#2B3A32" d="M303.484 523.312C309.909 523.138 316.843 523.442 322.795 526.104C316.136 526.483 309.029 526.234 302.364 525.77C302.346 524.851 303.019 524.097 303.484 523.312Z"/>
	<defs>
		<linearGradient id="gradient_3" gradientUnits="userSpaceOnUse" x1="744.9563" y1="526.85742" x2="791.4223" y2="719.04596">
			<stop offset="0" stop-color="#F6C313"/>
			<stop offset="1" stop-color="#EE6B21"/>
		</linearGradient>
	</defs>
	<path fill="url(#gradient_3)" d="M695.7 701.475C692.551 698.384 689.857 693.681 687.827 689.766C683.665 681.739 680.277 671.934 679.062 662.97C677.45 651.081 677.587 639.474 677.33 627.539C676.583 592.797 678.234 558.359 679.635 523.66C679.906 516.949 678.824 504.366 680.874 498.636C681.132 497.916 680.98 497.885 681.586 497.682C682.705 497.308 684.064 497.431 685.224 497.514C694.003 498.137 702.834 499.609 711.61 500.498C717.723 501.118 723.944 501.133 730.025 501.93C731.514 502.126 733.255 502.321 734.599 503.005C735.351 503.387 735.22 503.853 735.404 504.607C733.892 508.857 733.702 513.943 733.214 518.434C732.331 526.567 731.351 534.75 730.916 542.919C730.591 549.004 730.778 555.129 730.321 561.202C729.82 567.869 728.608 574.462 727.939 581.111C727.183 588.619 727.123 596.177 726.686 603.706C726.311 610.18 725.641 616.59 725.58 623.084L725.966 631.973C726.636 640.238 728.194 652.783 732.982 659.641C734.805 662.253 737.721 664.572 740.126 666.647C741.82 667.612 743.526 668.514 745.366 669.171C750.923 671.153 757.566 671.572 762.975 668.983C787.944 657.033 784.838 607.86 784.566 585.166C784.423 573.198 784.703 561.102 784.21 549.154C783.813 539.517 782.142 523.751 783.401 514.666C783.716 512.396 784.71 510.057 785.483 507.901C794.256 507.948 802.895 508.877 811.639 509.266C820.711 509.67 829.8 509.651 838.888 510.092C839.23 512.429 839.262 514.571 839.186 516.922C838.526 529.035 838.11 541.18 837.299 553.28C836.23 569.239 834.741 585.162 833.706 601.126C833.273 607.8 834.238 623.785 832.106 628.972C830.413 641.339 825.312 674.817 819.236 684.014C813.459 699.131 802.808 712.946 787.771 719.599C768.197 728.261 750.617 728.546 730.266 723.098C726.588 722.114 722.794 721.328 719.238 719.956C712.137 717.218 699.022 708.41 695.7 701.475Z"/>
	<path fill="#F3B214" d="M695.7 701.475C692.551 698.384 689.857 693.681 687.827 689.766C683.665 681.739 680.277 671.934 679.062 662.97C677.45 651.081 677.587 639.474 677.33 627.539C676.583 592.797 678.234 558.359 679.635 523.66C679.906 516.949 678.824 504.366 680.874 498.636C681.132 497.916 680.98 497.885 681.586 497.682C682.705 497.308 684.064 497.431 685.224 497.514C694.003 498.137 702.834 499.609 711.61 500.498C717.723 501.118 723.944 501.133 730.025 501.93C731.514 502.126 733.255 502.321 734.599 503.005C735.351 503.387 735.22 503.853 735.404 504.607C733.892 508.857 733.702 513.943 733.214 518.434C732.331 526.567 731.351 534.75 730.916 542.919C730.591 549.004 730.778 555.129 730.321 561.202C729.82 567.869 728.608 574.462 727.939 581.111C727.183 588.619 727.123 596.177 726.686 603.706C726.311 610.18 725.641 616.59 725.58 623.084L725.966 631.973L723.882 631.335C725.722 633.817 725.608 636.664 726.181 639.584C721.399 640.88 717.696 641.639 713.818 644.871L713.163 644.843L713.04 644.23C711.876 643.524 710.545 642.875 709.225 642.52C706.887 641.892 704.801 642.724 702.857 643.974C702.716 644.064 702.577 644.158 702.437 644.25L701.9 644.118C701.857 641.233 701.983 638.357 702.095 635.475C699.95 634.132 697.747 632.936 695.622 631.535C694.775 630.547 692.532 629.746 691.344 629.136C689.557 628.491 688.428 628.378 686.697 629.16C684.867 629.987 682.896 630.975 681.266 632.152C680.892 633.634 680.82 634.88 680.844 636.405C681.11 653.21 682.341 669.186 688.354 685.048C690.396 690.435 694.542 695.927 695.7 701.475Z"/>
	<path fill="#FBFAFA" d="M695.7 701.475C692.551 698.384 689.857 693.681 687.827 689.766C683.665 681.739 680.277 671.934 679.062 662.97C677.45 651.081 677.587 639.474 677.33 627.539C676.583 592.797 678.234 558.359 679.635 523.66C679.906 516.949 678.824 504.366 680.874 498.636C681.132 497.916 680.98 497.885 681.586 497.682C682.705 497.308 684.064 497.431 685.224 497.514C694.003 498.137 702.834 499.609 711.61 500.498C717.723 501.118 723.944 501.133 730.025 501.93C731.514 502.126 733.255 502.321 734.599 503.005C735.351 503.387 735.22 503.853 735.404 504.607C735.227 504.712 735.051 504.819 734.873 504.922C733.177 505.906 731.703 506.61 729.744 506.856C722.911 507.714 715.624 506.217 708.81 505.592C703.995 505.151 699.156 505.052 694.34 504.644C692.422 504.481 688.462 503.606 686.696 504.437C686.242 504.65 685.901 505.661 685.781 506.102C683.841 513.284 684.705 522.784 684.331 530.303C683.568 545.641 682.524 561.026 682.108 576.375C681.784 588.345 682.07 600.336 681.752 612.28C681.607 617.713 679.569 632.111 680.844 636.405C681.11 653.21 682.341 669.186 688.354 685.048C690.396 690.435 694.542 695.927 695.7 701.475Z"/>
	<path fill="#EF921B" d="M723.882 631.335C722.943 631.042 721.804 630.749 720.988 630.192C719.69 629.305 718.291 627.118 718.19 625.526C718.103 624.142 718.512 623.668 719.326 622.692C721.527 621.718 723.432 622.264 725.58 623.084L725.966 631.973L723.882 631.335Z"/>
	<path fill="#EF921B" d="M713.04 644.23C713.178 644.156 713.322 644.093 713.454 644.009C715.24 642.876 716.003 641.453 716.521 639.435C716.571 639.241 716.611 639.044 716.656 638.849C719.035 638.153 723.558 639.326 726.181 639.584C721.399 640.88 717.696 641.639 713.818 644.871L713.163 644.843L713.04 644.23Z"/>
	<path fill="#F1A017" d="M709.142 636.586C707.745 637.191 707.097 638.181 706.556 639.544L707.248 640.765L706.547 640.94C704.763 639.227 706.442 638.569 706.824 636.907C707.323 634.739 705.286 630.898 704.979 628.544C705.254 627.942 705.268 627.438 705.949 627.204C708.131 626.454 711.072 627.828 713.141 628.568C713.773 629.611 713.922 630.535 713.628 631.777C713.191 633.627 711.771 635.334 710.085 636.165C709.776 636.317 709.459 636.452 709.142 636.586Z"/>
	<path fill="#EF921B" d="M713.141 628.568C713.773 629.611 713.922 630.535 713.628 631.777C713.191 633.627 711.771 635.334 710.085 636.165C709.776 636.317 709.459 636.452 709.142 636.586C708.551 636.108 708.028 635.547 707.487 635.014C707.341 634.188 707.062 633.577 707.401 632.768C708.365 630.47 711.024 629.537 713.141 628.568Z"/>
	<path fill="#F1A017" d="M698.403 616.747C699.343 616.723 699.867 616.883 700.726 617.257L700.964 618.188C700.081 620.036 698.541 621.268 697.07 622.648C696.373 622.594 695.748 622.384 695.077 622.196L694.629 621.267C695.345 619.359 696.957 618.123 698.403 616.747Z"/>
	<path fill="#FBFAFA" d="M785.483 507.901C794.256 507.948 802.895 508.877 811.639 509.266C820.711 509.67 829.8 509.651 838.888 510.092C839.23 512.429 839.262 514.571 839.186 516.922C832.782 515.631 797.561 513.26 792.496 515.085C788.99 519.043 789.448 527.733 789.172 532.8C788.524 544.692 789.01 556.272 788.969 568.13C788.929 579.681 788.439 591.26 788.087 602.805C787.532 621.064 788.344 644.543 779.264 660.811C775.212 668.069 765.559 674.336 757.168 674.744C752.212 674.986 744.976 672.22 741.436 668.582C740.882 668.013 740.508 667.335 740.126 666.647C741.82 667.612 743.526 668.514 745.366 669.171C750.923 671.153 757.566 671.572 762.975 668.983C787.944 657.033 784.838 607.86 784.566 585.166C784.423 573.198 784.703 561.102 784.21 549.154C783.813 539.517 782.142 523.751 783.401 514.666C783.716 512.396 784.71 510.057 785.483 507.901Z"/>
	<path fill="#F15F25" d="M832.106 628.972C830.413 641.339 825.312 674.817 819.236 684.014L819.024 683.795C818.689 682.193 819.579 681.053 820.235 679.581C819.747 677.883 818.063 677.32 817.117 675.965C816.672 675.328 816.504 674.683 816.635 673.931C816.915 672.331 817.698 670.814 819.042 669.933C820.583 670.572 821.575 670.671 823.235 670.593C824.549 667.926 824.077 664.601 825.075 661.743C827.335 655.271 829.047 632.13 832.106 628.972Z"/>
	<path fill="#EF751F" d="M691.344 629.136C692.532 629.746 694.775 630.547 695.622 631.535C695.522 633.719 696.582 635.674 696.618 637.909C695.64 638.652 695.832 638.458 694.717 638.325C693.134 636.657 693.801 634.487 692.534 632.906C691.523 631.643 690.378 631.486 690.301 629.746L691.344 629.136Z"/>
	<path fill="#F1A017" d="M798.246 580.874C798.439 580.895 798.633 580.906 798.824 580.938C801.187 581.342 801.845 584.51 803.057 586.345C803.151 586.488 803.249 586.629 803.345 586.771L803.047 588.123C800.756 588.783 799.544 589.249 797.362 588.076C796.187 585.467 797.346 583.406 798.246 580.874Z"/>
	<path fill="#F15F25" d="M768.124 710.311C769.487 710.452 770.303 710.407 771.297 711.506C772.905 713.285 772.367 716.208 771.952 718.315C771.576 718.407 771.073 718.546 770.695 718.565C769.344 718.633 769.145 718.361 768.214 717.498C767.196 715.175 767.491 712.714 768.124 710.311Z"/>
	<path fill="#EF751F" d="M796.55 598.107C797.795 597.993 798.768 598.04 799.998 598.263C801.086 599.089 801.182 599.023 801.442 600.343C800.713 601.663 800.075 602.056 798.84 602.836C797.786 602.937 796.581 603.098 795.548 602.795C794.36 602.445 793.89 601.702 793.527 600.624C794.38 599.073 795.023 598.932 796.55 598.107Z"/>
	<path fill="#F1A017" d="M801.794 590.712C802.78 590.665 802.965 590.675 803.914 591.096L804.361 592.424C804.098 593.406 803.972 593.94 803.233 594.688C802.55 595.38 802.276 595.174 801.371 595.2C800.035 595.064 798.541 595.065 797.386 594.314C796.71 593.875 796.921 593.872 796.821 592.993C798.17 591.552 799.961 591.239 801.794 590.712Z"/>
	<path fill="#EF751F" d="M805.073 599.23C805.573 599.29 805.764 599.296 806.295 599.449C807.515 599.798 808.146 600.157 808.818 601.212C808.584 602.913 807.38 603.844 806.238 605.013C804.728 604.534 803.936 604.505 802.921 603.257C803.008 601.595 804.106 600.498 805.073 599.23Z"/>
	<path fill="#EF921B" d="M690.307 639.789C690.733 639.826 691.391 639.862 691.786 639.992C693.075 640.417 693.311 641.055 693.942 642.15C693.965 643.527 693.866 644.27 693.269 645.515C692.826 645.507 692.147 645.511 691.728 645.422C690.368 645.133 690.206 644.76 689.527 643.663C689.53 642.114 689.737 641.231 690.307 639.789Z"/>
	<path fill="#EF921B" d="M825.278 624.173C826.362 624.474 827.119 624.809 827.992 625.543C828.827 626.244 829.82 627.018 829.92 628.109L828.912 628.698C828.377 628.793 827.504 629.018 826.936 628.972C825.656 628.868 825.46 628.611 824.697 627.697C824.541 626.185 824.722 625.532 825.278 624.173Z"/>
	<path fill="#F1A017" d="M713.247 655.365C714.067 656.364 714.677 657.195 715.243 658.372C714.63 659.702 714.095 659.663 712.786 660.232C711.76 660.021 711.325 659.86 710.566 659.132C710.846 657.564 712.184 656.534 713.247 655.365Z"/>
	<path fill="#EF751F" d="M807.796 626.617C809.586 627.059 810.652 627.326 811.774 628.805L811.552 630.294C810.206 630.677 809.425 630.921 808.013 630.66C807.268 629.197 807.626 628.226 807.796 626.617Z"/>
	<path fill="#EF751F" d="M801.856 638.651C803.384 639.116 804.148 639.599 804.961 640.99C804.7 642.332 804.658 642.055 803.617 642.778C802.618 642.339 801.78 641.865 800.881 641.248L800.708 640.085L801.856 638.651Z"/>
	<defs>
		<linearGradient id="gradient_4" gradientUnits="userSpaceOnUse" x1="389.05841" y1="247.77945" x2="478.72189" y2="461.21326">
			<stop offset="0" stop-color="#6AB52B"/>
			<stop offset="1" stop-color="#25A180"/>
		</linearGradient>
	</defs>
	<path fill="url(#gradient_4)" d="M422.257 224.842C424.608 224.797 426.986 224.782 429.333 224.957C435.839 225.442 442.344 226.397 448.841 227.056C458.01 227.986 469.289 228.076 478.05 230.955C479.205 231.334 479.783 231.983 480.554 232.888C484.249 246.295 489.51 259.355 493.63 272.66C496.583 282.198 499.035 291.897 502.084 301.402C508.821 322.403 516.275 343.228 523.278 364.149C525.85 371.836 527.787 379.749 530.503 387.383C536 402.832 542.633 417.844 548.418 433.162C539.584 437.295 529.811 438.79 520.455 441.336C514.91 442.845 509.456 444.962 503.823 446.105C500.994 446.678 498.003 446.872 495.119 446.978C488.134 431.337 482.566 414.481 477.282 398.185C466.457 396.451 454.65 397.056 443.673 396.947C435.183 396.862 426.619 396.352 418.143 396.645C417.733 403.473 416.045 410.21 415.049 416.977C413.642 426.536 412.707 436.222 410.929 445.716C402.973 445.162 374.919 444.068 369.223 440.223L369.603 439.477C370.592 439.726 371.461 440.021 372.393 440.435L373.079 439.9L372.804 440.229C373.024 439.476 372.936 439.159 373.606 438.704C376.129 428.245 371.673 405.392 374.38 399.805C375.234 394.153 377.551 388.48 379.088 382.962Q383.181 367.836 387.041 352.649C391.728 334.327 395.789 315.826 400.902 297.619C404.197 285.889 408.44 274.462 411.776 262.761C415.348 250.231 417.446 236.953 422.257 224.842Z"/>
	<path fill="#FBFAFA" d="M422.257 224.842C424.608 224.797 426.986 224.782 429.333 224.957C435.839 225.442 442.344 226.397 448.841 227.056C458.01 227.986 469.289 228.076 478.05 230.955C479.205 231.334 479.783 231.983 480.554 232.888C480.354 232.947 480.158 233.023 479.954 233.064C477.752 233.503 475.014 232.892 472.769 232.763C465.225 232.327 457.698 232.07 450.163 231.43C444.191 230.922 437.288 229.599 431.343 230.075C429.611 230.214 427.992 230.425 426.884 231.891C423.568 236.282 422.894 247.469 421.082 253.134C417.745 263.561 413.445 273.677 410.209 284.14C405.705 298.7 379.384 394.663 374.38 399.805C375.234 394.153 377.551 388.48 379.088 382.962Q383.181 367.836 387.041 352.649C391.728 334.327 395.789 315.826 400.902 297.619C404.197 285.889 408.44 274.462 411.776 262.761C415.348 250.231 417.446 236.953 422.257 224.842Z"/>
	<path fill="#040403" d="M451.315 281.903L451.279 281.174L452.321 281.161C453.428 282.354 453.901 283.704 454.377 285.234C456.194 291.064 457.238 297.286 458.793 303.219C460.981 311.566 474.144 357.444 473.804 362.532C473.794 362.692 473.761 362.849 473.74 363.007C472.589 363.643 471.56 363.676 470.274 363.694C466.325 363.75 462.275 362.923 458.317 362.747C451.957 362.464 444.076 364.08 437.979 362.143C437.202 361.896 436.562 361.462 435.895 361.007C434.543 360.507 432.893 360.516 431.449 360.388C432.865 350.537 447.955 285.105 451.315 281.903Z"/>
	<path fill="#FBFAFA" d="M451.315 281.903L451.279 281.174L452.321 281.161C453.428 282.354 453.901 283.704 454.377 285.234C456.194 291.064 457.238 297.286 458.793 303.219C460.981 311.566 474.144 357.444 473.804 362.532C473.794 362.692 473.761 362.849 473.74 363.007C472.589 363.643 471.56 363.676 470.274 363.694C466.325 363.75 462.275 362.923 458.317 362.747C451.957 362.464 444.076 364.08 437.979 362.143C437.202 361.896 436.562 361.462 435.895 361.007C446.666 361.012 461.5 362.079 471.823 360.356C470.465 352.669 467.979 345.05 465.985 337.499C462.962 326.052 460.11 314.588 456.982 303.164C455.07 296.181 453.983 288.593 451.315 281.903Z"/>
	<path fill="#24A795" d="M700.327 249.019C712.719 248.662 737.396 249.629 749.094 252.208L748.023 257.494C746.264 268.967 736.902 336.228 740.038 342.652C741.074 342.85 742.034 342.994 743.089 343.025C754.755 340.645 765.216 344.572 776.205 343.196C778.48 342.912 781.212 342.469 782.583 340.447C786.432 334.767 785.874 319.765 786.124 312.902C786.428 304.561 787.317 296.226 787.443 287.883C787.585 278.506 786.808 268.889 787.875 259.568C788.161 257.066 788.51 254.372 790.099 252.343C795.18 250.524 818.36 253.372 825.016 253.751C829.709 254.019 834.413 254.005 839.112 254.003L839.172 261.083C839.135 267.401 839.27 273.817 838.886 280.121C838.418 287.815 837.427 295.488 836.875 303.182Q834.418 334.111 832.884 365.099Q831.636 390.155 831.568 415.242C831.684 433.076 832.589 450.886 832.61 468.724Q814.149 464.203 795.48 460.635C791.704 459.876 787.171 458.412 783.343 458.402C782.764 458.086 781.581 457.659 781.293 457.069C780.431 455.305 783.052 394.337 783.802 388.681C784.072 386.643 784.78 384.862 785.593 382.985C785.551 382.909 785.53 382.817 785.467 382.756C784.159 381.482 754.936 378.704 750.211 378.278C746.387 380.888 739.502 379.385 735.106 378.9C735.134 380.546 735.404 382.387 734.685 383.877C734.002 395.784 732.547 407.588 731.482 419.458C730.364 431.932 730.169 444.112 726.901 456.31C716.835 453.986 691.149 447.576 682 448.039C680.832 447.433 680.161 447.113 679.388 446.003C677.492 438.143 680.332 420.319 681.076 411.532C682.337 396.654 682.337 381.609 683.989 366.765C684.769 359.752 686.251 352.802 687.257 345.816L694.322 293.845L697.835 265.679C698.524 260.152 698.942 254.421 700.327 249.019Z"/>
	<path fill="#FBFAFA" d="M743.089 343.025C754.755 340.645 765.216 344.572 776.205 343.196C778.48 342.912 781.212 342.469 782.583 340.447C786.432 334.767 785.874 319.765 786.124 312.902C786.428 304.561 787.317 296.226 787.443 287.883C787.585 278.506 786.808 268.889 787.875 259.568C788.161 257.066 788.51 254.372 790.099 252.343C795.18 250.524 818.36 253.372 825.016 253.751C829.709 254.019 834.413 254.005 839.112 254.003L839.172 261.083C831.812 260.658 801.928 256.679 796.43 259.058C790.845 268.553 790.336 315.809 789.406 329.686C788.979 336.062 787.552 343.611 787.565 349.74C777.414 348.036 750.927 348.465 743.089 343.025Z"/>
	<path fill="#FBFAFA" d="M700.327 249.019C712.719 248.662 737.396 249.629 749.094 252.208L748.023 257.494C741.847 256.563 735.628 256.111 729.455 255.197C722.03 254.098 714.462 252.451 706.973 252.06C705.449 251.98 704.479 251.844 703.145 252.572C699.993 258.76 693.993 325.337 692.431 337.938C691.263 347.366 689.171 356.703 688.213 366.139C687.588 372.3 687.265 378.492 686.655 384.655C686.152 389.732 685.321 394.79 684.965 399.88C684.508 406.422 684.48 412.995 683.973 419.537C683.367 427.353 681.203 435.787 682.313 443.578C682.488 444.81 683.021 446.59 682.363 447.703C682.279 447.845 682.121 447.927 682 448.039C680.832 447.433 680.161 447.113 679.388 446.003C677.492 438.143 680.332 420.319 681.076 411.532C682.337 396.654 682.337 381.609 683.989 366.765C684.769 359.752 686.251 352.802 687.257 345.816L694.322 293.845L697.835 265.679C698.524 260.152 698.942 254.421 700.327 249.019Z"/>
	<path fill="#FBFAFA" d="M785.593 382.985C789.242 390.526 785.699 422.833 785.214 432.633C784.894 439.096 785.417 452.334 783.518 457.968C783.468 458.115 783.401 458.257 783.343 458.402C782.764 458.086 781.581 457.659 781.293 457.069C780.431 455.305 783.052 394.337 783.802 388.681C784.072 386.643 784.78 384.862 785.593 382.985Z"/>
	<path fill="#2B3A32" d="M734.685 383.877C734.569 381.464 734.155 379.218 735.75 377.213C739.491 375.113 746.149 377.562 750.211 378.278C746.387 380.888 739.502 379.385 735.106 378.9C735.134 380.546 735.404 382.387 734.685 383.877Z"/>
	<defs>
		<linearGradient id="gradient_5" gradientUnits="userSpaceOnUse" x1="158.65857" y1="497.96976" x2="198.26979" y2="721.33881">
			<stop offset="0" stop-color="#38B181"/>
			<stop offset="1" stop-color="#1781AB"/>
		</linearGradient>
	</defs>
	<path fill="url(#gradient_5)" d="M91.2209 568.38L89.2652 567.941C88.3337 566.899 88.0033 565.922 87.7435 564.576C87.3412 562.49 87.3782 560.329 87.1483 558.22L85.0105 539.306C84.1154 531.063 82.6951 522.876 81.9598 514.615C81.7463 512.216 80.9996 506.418 82.5282 504.571C85.6959 503.76 89.071 503.824 92.324 503.521C98.4951 502.947 104.708 502.319 110.847 501.473L199.779 489.41C204.648 488.795 235.35 483.725 237.399 484.462C237.569 491.73 237.939 499.046 237.766 506.313C237.469 518.79 236.373 531.819 237.925 544.24C222.836 547.261 207.358 549.779 192.108 551.87C193.637 569.315 194.118 586.859 195.275 604.331Q198.808 663.016 204.821 721.498C187.179 722.975 169.292 724.832 151.83 727.799C151.141 727.874 150.472 727.828 149.781 727.805C148.919 725.269 149.523 721.301 149.314 718.541C146.861 686.155 147.055 653.609 146.21 621.16C145.76 603.879 144.258 586.447 144.421 569.178C144.453 565.832 144.758 563.054 145.751 559.845L145.696 559.236C141.952 558.648 136.25 560.961 132.399 561.594C124.121 562.954 115.879 564.711 107.603 565.995C102.373 566.806 96.2516 566.953 91.2209 568.38Z"/>
	<path fill="#FBFAFA" d="M91.2209 568.38L89.2652 567.941C88.3337 566.899 88.0033 565.922 87.7435 564.576C87.3412 562.49 87.3782 560.329 87.1483 558.22L85.0105 539.306C84.1154 531.063 82.6951 522.876 81.9598 514.615C81.7463 512.216 80.9996 506.418 82.5282 504.571C85.6959 503.76 89.071 503.824 92.324 503.521C98.4951 502.947 104.708 502.319 110.847 501.473L199.779 489.41C204.648 488.795 235.35 483.725 237.399 484.462Q237.107 487.066 236.88 489.676Q207.878 494.342 178.751 498.156C168.463 499.446 158.117 500.306 147.844 501.644C135.145 503.297 122.655 506.093 109.987 507.84C102.206 508.913 94.3341 509.126 86.5499 510.063C86.3332 520.069 87.929 528.925 89.2168 538.777C90.0133 544.871 90.2028 551.142 90.6108 557.28C90.8463 560.823 91.5674 564.885 91.2209 568.38Z"/>
	<path fill="#FBFAFA" d="M145.751 559.845C146.796 560.315 147.02 560.394 147.459 561.536C150.008 568.157 148.881 587.12 149.068 595.051L150.294 652.362C150.857 677.428 152.851 702.746 151.83 727.799C151.141 727.874 150.472 727.828 149.781 727.805C148.919 725.269 149.523 721.301 149.314 718.541C146.861 686.155 147.055 653.609 146.21 621.16C145.76 603.879 144.258 586.447 144.421 569.178C144.453 565.832 144.758 563.054 145.751 559.845Z"/>
	<path fill="#64B12C" d="M523.723 232.178C538.601 231.639 553.382 232.365 568.248 232.552C576.514 232.656 584.74 232.234 592.999 232.095C601.146 231.959 609.306 232.161 617.45 231.934C629.911 231.587 673.729 226.042 681.588 229.707C683.573 231.735 683.581 234.31 683.696 236.995C683.484 244.638 684.095 252.364 683.734 259.964C683.386 267.313 681.874 274.889 680.76 282.167C670.371 280.411 659.511 280.495 649.001 280.72C642.378 280.861 635.652 281.321 629.063 280.451C628.929 306.576 627.577 332.55 626.951 358.649C627.108 368.018 626.527 377.37 626.495 386.737C626.455 398.223 626.93 409.714 626.997 421.201C627.05 430.111 626.33 439.62 627.58 448.431C610.61 447.114 593.104 447.716 576.036 446.954C574.668 446.509 573.642 446.227 572.616 445.15C570.315 432.904 580.744 297.317 585.118 282.158C584.964 281.979 584.823 281.79 584.657 281.622C583.417 280.368 581.815 280.245 580.137 280.227C575.963 280.182 571.862 281.453 567.663 281.553C555.295 281.848 542.788 281.287 530.411 281.083C529 281.102 527.877 281.108 526.519 280.635C523.546 275.397 522.553 238.689 523.723 232.178Z"/>
	<path fill="#3BA667" d="M585.118 282.158C586.143 283.201 587.478 284.232 587.564 285.776C587.872 291.332 586.54 297.833 585.93 303.411C584.238 318.879 581.921 334.33 581.903 349.923L582.459 349.799C582.658 345.481 582.819 334.659 584.803 331.492C586.924 332.9 589.623 335.064 592.133 335.552C593.009 335.722 621.263 333.192 623.583 332.734C624.295 332.593 624.342 332.568 624.938 332.392C626.366 333.75 626.469 335.494 626.536 337.418C626.744 343.41 624.901 353.332 626.951 358.649C627.108 368.018 626.527 377.37 626.495 386.737C626.455 398.223 626.93 409.714 626.997 421.201C627.05 430.111 626.33 439.62 627.58 448.431C610.61 447.114 593.104 447.716 576.036 446.954C574.668 446.509 573.642 446.227 572.616 445.15C570.315 432.904 580.744 297.317 585.118 282.158Z"/>
	<path fill="#FBFAFA" d="M585.118 282.158C586.143 283.201 587.478 284.232 587.564 285.776C587.872 291.332 586.54 297.833 585.93 303.411C584.238 318.879 581.921 334.33 581.903 349.923C581.092 354.189 581.144 358.814 580.883 363.151Q580.191 374.702 579.374 386.244L576.322 426.118C575.984 431.079 575.237 436.195 575.229 441.154C575.225 443.151 575.589 445.015 576.036 446.954C574.668 446.509 573.642 446.227 572.616 445.15C570.315 432.904 580.744 297.317 585.118 282.158Z"/>
	<path fill="#FBFAFA" d="M523.723 232.178C538.601 231.639 553.382 232.365 568.248 232.552C576.514 232.656 584.74 232.234 592.999 232.095C601.146 231.959 609.306 232.161 617.45 231.934C629.911 231.587 673.729 226.042 681.588 229.707C683.573 231.735 683.581 234.31 683.696 236.995C649.857 235.868 616.064 238.245 582.247 239.347C570.087 239.744 543.007 238.175 532.726 241.382C529.618 245.157 530.353 274.318 530.411 281.083C529 281.102 527.877 281.108 526.519 280.635C523.546 275.397 522.553 238.689 523.723 232.178Z"/>
	<path fill="#EF751F" d="M875.955 506.2C881.038 505.829 924.726 506.216 928.447 507.446C929.261 508.685 929.018 510.29 929.011 511.719C928.471 544.47 922.801 577.168 919.605 609.74L911.929 687.84C910.597 701.945 909.945 716.382 907.893 730.378C895.857 727.541 883.265 726.271 871.035 724.35C866.726 723.674 862.282 722.186 858.023 721.715C856.941 721.476 856.384 721.264 855.526 720.556C854.823 718.359 854.9 716.07 855.038 713.789C855.585 704.774 856.773 695.758 857.632 686.764L863.556 624.334L871.021 546.015C871.93 536.502 872.118 526.869 873.336 517.395C873.837 513.498 874.555 509.878 875.955 506.2Z"/>
	<path fill="#FBFAFA" d="M875.955 506.2C881.038 505.829 924.726 506.216 928.447 507.446C929.261 508.685 929.018 510.29 929.011 511.719C922.419 514.038 905.83 513.37 898.508 512.901C892.24 512.499 886.441 511.37 880.118 511.811C874.745 531.113 874.085 550.68 872.135 570.506L861.361 684.306C860.105 696.628 859.963 709.537 858.023 721.715C856.941 721.476 856.384 721.264 855.526 720.556C854.823 718.359 854.9 716.07 855.038 713.789C855.585 704.774 856.773 695.758 857.632 686.764L863.556 624.334L871.021 546.015C871.93 536.502 872.118 526.869 873.336 517.395C873.837 513.498 874.555 509.878 875.955 506.2Z"/>
	<path fill="#F15F25" d="M872.597 615.764C874.691 616.439 876.744 617.149 878 619.097C878.887 620.472 878.946 621.963 878.457 623.487C877.867 623.466 877.674 623.47 877.047 623.392C875.44 623.193 873.722 622.216 872.843 620.814C871.756 619.08 872.043 617.577 872.597 615.764Z"/>
	<path fill="#F15F25" d="M870.277 706.902C870.777 707.108 871.299 707.435 871.777 707.693C872.323 708.731 872.944 709.506 872.505 710.741C871.975 712.233 870.99 712.526 869.724 713.163C868.795 712.679 867.647 712.041 867.005 711.195C866.186 710.116 866.37 709.597 866.693 708.437C867.873 707.431 868.814 707.217 870.277 706.902Z"/>
	<path fill="#24A795" d="M411.865 493.843C420.958 492.705 456.742 489.455 463.532 494.605C464.246 495.146 464.142 496.354 464.255 497.207C462.979 506.839 463.948 517.244 463.621 526.996C463.115 542.088 462.423 556.971 462.529 572.089C462.673 592.747 463.79 613.401 464.003 634.067C464.22 655.001 463.248 675.803 464.096 696.764C464.326 702.421 464.16 708.378 465.061 713.971C448.591 714.553 432.107 715.372 415.622 715.209C414.872 714.093 414.569 713.145 414.405 711.804C413.912 707.763 414 703.526 413.814 699.452C413.044 682.64 413.519 665.773 413.892 648.956Q414.599 607.774 414.635 566.586Q414.329 543.529 413.232 520.496C412.867 511.56 412.758 502.76 411.865 493.843Z"/>
	<path fill="#FBFAFA" d="M411.865 493.843C420.958 492.705 456.742 489.455 463.532 494.605C464.246 495.146 464.142 496.354 464.255 497.207C462.33 497.625 460.255 498.172 458.282 498.209C454.264 498.285 450.034 497.484 445.997 497.264C441.11 496.998 421.757 496.667 418.536 499.673C415.847 508.072 417.856 540.563 417.933 551.089Q418.649 611.61 417.442 672.123C417.206 684.615 418.217 697.507 417.225 709.93C417.069 711.885 416.974 713.662 415.622 715.209C414.872 714.093 414.569 713.145 414.405 711.804C413.912 707.763 414 703.526 413.814 699.452C413.044 682.64 413.519 665.773 413.892 648.956Q414.599 607.774 414.635 566.586Q414.329 543.529 413.232 520.496C412.867 511.56 412.758 502.76 411.865 493.843Z"/>
	<path fill="#FBFAFA" d="M655.208 325.974C661.494 326.045 667.869 326.995 674.114 327.696C668.642 355.809 666.833 384.744 664.431 413.251C663.351 426.066 661.084 441.789 661.657 454.452C661.826 458.202 662.723 461.214 664.076 464.674C660.326 464.122 657.948 463.833 654.352 465.394C653.577 459.261 653.897 452.533 653.737 446.331C653.25 427.422 653.567 408.73 653.952 389.83C654.106 382.296 653.488 374.789 653.523 367.261C653.588 353.504 654.32 339.701 655.208 325.974Z"/>
	<path fill="#FBFAFA" d="M760.575 533.522L765.408 533.541C766.729 543.907 765.462 555.493 765.37 566C765.205 584.903 765.173 603.379 764 622.27C763.6 628.71 763.696 635.614 762.364 641.92C761.425 646.367 759.586 652.005 755.657 654.595C754.347 654.741 753.999 654.857 752.929 653.913C744.221 646.238 756.421 575.36 758.07 562.183C759.263 552.648 759.969 543.11 760.575 533.522Z"/>
	<path fill="#FBFAFA" d="M533.601 325.065C543.527 324.706 553.81 325.52 563.735 326.011C560.45 346.911 560.053 370.365 558.665 391.588L558.351 397.959C549.533 374.458 540.624 349.128 533.601 325.065Z"/>
	<path fill="#FBFAFA" d="M383.032 484.122Q384.157 484.049 385.285 484.037C389.308 484.009 394.158 490.385 396.921 493.12C396.993 496.13 397.262 499.161 397.452 502.168C396.574 501.473 396.821 501.779 396.24 500.941C392.148 495.049 387.273 489.881 383.032 484.122Z"/>
	<path fill="#F15F25" d="M737.765 141.085L745.335 141.409C745.458 141.497 745.582 141.582 745.703 141.672C745.905 141.822 746.102 141.978 746.303 142.128Q746.894 142.576 747.441 143.077Q747.988 143.578 748.487 144.126Q748.985 144.675 749.432 145.267Q749.878 145.859 750.268 146.49Q750.659 147.12 750.989 147.784Q751.32 148.448 751.588 149.139Q751.857 149.83 752.061 150.543Q752.264 151.256 752.402 151.985C753.477 157.387 751.841 162.431 748.843 166.92C743.251 175.29 732.561 184.127 722.612 186.057L716.235 187.233L715.642 187.009C714.892 186.732 714.139 186.464 713.406 186.142C711.426 185.273 710.171 183.717 709.46 181.69C707.554 176.257 710.757 168.725 713.217 163.823C718.267 153.758 726.919 144.606 737.765 141.085Z"/>
	<path fill="#F15F25" d="M934.538 328.129C939.792 328.49 942.688 329.114 946.384 333.17C947.027 337.796 946.603 341.714 944.057 345.751C939.088 353.632 919.516 361.901 910.376 363.789C905.305 364.678 901.675 364.037 896.711 362.859C898.012 359.127 900.041 356.26 902.415 353.136C909.531 343.774 922.161 329.791 934.538 328.129Z"/>
	<path fill="#F15F25" d="M247.907 789.467C248.847 789.842 249.569 789.988 250.047 790.983C252.29 795.656 247.997 806.046 246.014 810.459C242.442 818.411 237.029 829.379 228.255 832.452C223.951 833.959 220.416 833.206 216.405 831.336C214.923 828.961 211.931 827.651 211.112 824.958C210.149 821.789 210.963 818.324 212.44 815.455C217.272 806.068 237.884 792.891 247.907 789.467Z"/>
	<path fill="#F15F25" d="M322.005 117.582C323.632 117.456 325.385 117.303 326.99 117.675C339.981 120.694 345.543 146.823 350.055 157.702C351.15 160.342 352.653 162.781 354.143 165.213Q349.914 163.17 345.622 161.262C336.057 157.73 319.192 146.682 313.785 137.9Q313.44 137.349 313.153 136.766Q312.867 136.182 312.643 135.572Q312.419 134.962 312.26 134.332Q312.101 133.702 312.008 133.058Q311.916 132.415 311.891 131.766Q311.865 131.116 311.908 130.467Q311.95 129.819 312.06 129.178Q312.17 128.538 312.346 127.912C313.74 123.004 317.788 120.006 322.005 117.582Z"/>
	<path fill="#F15F25" d="M52.137 303.537C54.5279 303.452 56.409 303.57 58.5978 304.609C69.0621 309.574 81.7469 332.875 85.6714 343.885L80.5577 341.53C68.3692 336.084 64.1328 336.858 53.0001 327.311C50.3271 325.018 47.6746 322.539 46.1473 319.304C44.7029 316.244 44.3462 312.228 45.5425 309.025C46.7095 305.901 49.2406 304.749 52.137 303.537Z"/>
	<path fill="#F3B214" d="M671.724 820.83Q672.334 820.806 672.943 820.834C677.372 821.041 681.857 825.572 684.76 828.653C689.68 833.875 694.197 840.744 693.738 848.239C693.524 851.747 692.233 853.635 689.65 855.884C687.887 856.498 686.209 857.069 684.321 857.069C681.259 857.068 678.51 855.286 676.522 853.064C671.095 846.996 667.385 834.452 668.215 826.391C668.499 823.625 669.628 822.486 671.724 820.83Z"/>
	<path fill="#F3B214" d="M900.618 425.088C904.682 424.894 908.852 424.977 912.483 427.086C914.511 428.263 916.119 430.059 916.665 432.376C917.268 434.932 916.577 437.553 915.15 439.713C911.725 444.897 905.724 446.351 900.012 447.371C896.127 448.15 891.838 448.442 888.018 447.158C886.209 446.549 884.487 445.454 883.736 443.617C882.888 441.542 883.376 439.185 884.27 437.215C887.225 430.702 894.338 427.477 900.618 425.088Z"/>
	<path fill="#F3B214" d="M337.372 791.46C339.372 791.411 340.315 791.834 341.788 793.151C343.496 794.678 344.015 797.232 344.039 799.42C344.109 806.079 341.036 813.335 336.263 817.972C332.53 821.599 329.195 822.658 324.157 822.563C321.433 821.665 319.044 820.608 317.638 817.947C316.563 815.911 316.697 813.637 317.377 811.499C320.158 802.75 329.5 795.413 337.372 791.46Z"/>
	<path fill="#F15F25" d="M832.921 807.11C837.594 806.825 841.428 807.119 845.836 808.802C851.26 810.871 856.272 814.396 858.621 819.885C859.467 821.861 859.913 824.234 859.006 826.276C857.759 829.083 855.033 831.583 852.219 832.707C849.994 832.813 847.891 832.685 845.853 831.72C839.864 828.885 828.687 818.199 826.737 811.962C826.363 810.766 826.287 810.146 826.864 809C828.762 807.816 830.762 807.537 832.921 807.11Z"/>
	<path fill="#F15F25" d="M633.479 140.521C634.687 140.435 635.931 140.322 637.141 140.42C639.168 140.585 641.659 141.535 642.89 143.231C644.178 145.005 644.127 147.258 643.832 149.329C642.518 158.571 633.876 167.557 626.701 172.954C623.499 173.936 620.409 174.021 617.094 174.086C619.812 160.677 622.161 149.412 633.479 140.521Z"/>
	<path fill="#64B12C" d="M794.165 183.575C795.901 183.496 797.603 183.434 799.305 183.851C802.208 184.563 804.823 186.297 806.277 188.947C807.904 191.914 807.97 195.525 806.898 198.688C805.182 203.754 801.364 206.983 796.684 209.244C794.227 209.84 792.273 210.095 789.819 209.22C787.223 208.295 785.235 206.394 784.169 203.855C782.531 199.951 783.031 195.391 784.822 191.631C786.841 187.391 789.798 185.052 794.165 183.575Z"/>
	<path fill="#F15F25" d="M539.737 801.993C540.755 801.908 541.835 801.801 542.842 802.018C545.572 802.605 547.741 805.048 549.194 807.286C552.117 811.786 554.065 818.414 552.681 823.695C551.972 826.399 550.372 827.727 548.019 829.033C546.511 829.045 544.958 829.046 543.46 828.879C540.773 828.58 538.457 827.009 536.796 824.925C533.945 821.349 533.141 815.731 533.805 811.318C534.458 806.979 536.295 804.546 539.737 801.993Z"/>
	<path fill="#F1A017" d="M81.1034 655.64C83.7655 655.528 86.5689 655.287 88.979 656.664C90.239 657.384 90.9341 658.357 91.2443 659.781C91.7225 661.977 90.2808 664.696 89.0155 666.379C85.4129 671.171 80.3687 673.343 74.6091 674.132C72.07 674.264 69.0054 674.658 66.6221 673.623C65.1405 672.979 63.8915 671.944 63.4489 670.322C62.7805 667.873 64.4696 664.83 65.8834 662.944C69.6824 657.878 75.1597 656.439 81.1034 655.64Z"/>
	<path fill="#24A795" d="M70.1589 399.074C72.4061 399.011 74.5378 399.441 76.6401 400.24C80.8883 401.855 85.306 405.091 87.0079 409.456C87.6483 411.098 87.8133 412.796 87.0695 414.434C85.9094 416.989 83.2513 418.43 80.7415 419.333C78.3811 419.421 76.0866 419.472 73.8319 418.653C69.6768 417.143 65.2772 413.721 63.4886 409.592C62.7318 407.845 62.4917 405.894 63.3066 404.121C64.5671 401.378 67.4768 400.024 70.1589 399.074Z"/>
	<path fill="#2188AD" d="M430.152 798.08C431.311 797.97 432.589 797.792 433.732 798.079C435.79 798.596 437.713 800.179 438.749 802.003C439.92 804.065 440.126 806.477 439.462 808.739C438.636 811.557 436.878 812.955 434.425 814.369C433.257 814.638 431.948 815.018 430.746 814.819C429.206 814.565 427.782 813.488 426.88 812.255C425.361 810.18 425.044 807.412 425.47 804.931C426.023 801.708 427.519 799.889 430.152 798.08Z"/>
	<path fill="#64B12C" d="M416.278 155.833C418.135 156.001 419.703 156.226 421.221 157.392C425.095 160.369 427.433 167.573 427.646 172.311C427.701 173.525 427.46 174.057 426.709 174.966L425.09 174.989C421.217 173.124 417.393 171.456 414.619 168.01C413.008 166.008 411.992 163.754 412.443 161.149C412.9 158.506 414.154 157.33 416.278 155.833Z"/>
</svg>
